<?xml version="1.0" encoding="UTF-8" standalone="no"?><!-- Generator: Gravit.io --><svg xmlns="http://www.w3.org/2000/svg" xmlns:xlink="http://www.w3.org/1999/xlink" style="isolation:isolate" viewBox="1797.424 -19.061 2990.099 4077.001" width="2990.099pt" height="4077.001pt"><defs><clipPath id="_clipPath_OZLAdWMucV3F8LyHtJJ43uITwN6yU7Hl"><rect x="1797.424" y="-19.061" width="2990.099" height="4077.001"/></clipPath></defs><g clip-path="url(#_clipPath_OZLAdWMucV3F8LyHtJJ43uITwN6yU7Hl)"><g><path d=" M 2802.244 3852.686 C 2468.043 3613.809 2203.839 3108.16 2113.92 2518.179 C 2090.763 2366.236 1982.896 2178.112 1964.92 2020.686 C 1932.42 1736.056 1836.058 1473.565 1947.92 1244.073 C 1818.993 589.677 2451.287 136.15 3294.42 126.686 C 3892.875 119.969 4368.856 823.836 4612.92 1692.686 C 4635.464 1688.056 4762.772 1721.521 4785.92 1925.686 C 4795.49 2010.09 4759.667 2275.429 4745.92 2372.686 C 4794.843 2448.49 4743.34 2623.334 4625.92 2658.687 C 4587.168 2685.283 4510.008 2580.65 4512.92 2615.647 C 4529.561 2815.651 4562.52 3006.818 4499.92 3167.686 C 4285.296 3719.225 3719.679 4040.686 3294.42 4040.686 C 3119.146 4040.686 2952.558 3960.127 2802.244 3852.686 Z " fill="rgb(238,178,122)"/><linearGradient id="_lgradient_2" x1="0" y1="0.5" x2="-0.1411307725507124" y2="-0.004271788633996909" gradientTransform="matrix(2314,0,0,3121.253,2289.92,936.686)" gradientUnits="userSpaceOnUse"><stop offset="0%" stop-opacity="1" style="stop-color:rgb(123,101,79)"/><stop offset="100%" stop-opacity="1" style="stop-color:rgb(0,0,0)"/></linearGradient><path d=" M 3904.92 3102.686 C 4233.441 2955.325 4380.794 2618.345 4346.92 2091.686 C 4250.223 1690.718 4095.577 1424.738 3882.92 1293.686 L 3799.92 956.686 L 4406.92 936.686 C 4486.822 1144.258 4552.499 1380.935 4603.92 1668.686 C 4552.742 1680.701 4468.769 1738.823 4373.92 1872.686 C 4501.75 2440.043 4548.103 2836.73 4540.92 3030.686 C 4511.448 3303.958 4313.412 3606.807 3942.92 3830.686 C 3799.547 3955.576 3703.285 3970.096 3489.92 4018.686 C 3318.85 4111.935 2996.204 4041.288 2635.92 3782.686 C 2499.93 3607.036 2386.627 3387.732 2289.92 3152.686 C 2449.65 3358.019 2583.66 3486.363 2697.92 3509.686 C 2668.005 3392.162 2655.348 3324.505 2659.92 3306.686 C 2684.686 3232.963 2802.706 3116.65 3021.92 2957.686 C 3082.417 2959.76 3102.995 2929.572 3145.92 2917.686 C 3272.864 2882.538 3377.573 2872.352 3504.92 2876.686 C 3563.562 2878.682 3620.133 2869.512 3670.92 2893.686 C 3771.815 2941.712 3835.533 3011.09 3904.92 3102.686 Z  M 2851.92 3737.686 C 2923.086 3742.27 2986.763 3757.28 3042.92 3782.686 C 3178.547 3585.322 3411.557 3532.999 3741.92 3625.686 C 3776.351 3556.275 3830.694 3509.952 3904.92 3486.686 C 3888.071 3371.264 3866.414 3279.94 3839.92 3212.686 C 3784.584 3055.317 3558.261 2994.661 3160.92 3030.686 C 3132.038 3051.21 3096.382 3059.887 3053.92 3056.686 C 3001.391 3055.547 2920.067 3145.89 2785.92 3327.686 C 2766.539 3512.963 2788.549 3649.64 2851.92 3737.686 Z " fill-rule="evenodd" fill="url(#_lgradient_2)"/><linearGradient id="_lgradient_3" x1="0.28441875329695365" y1="1.60619486634607" x2="-0.1139008814193459" y2="0.2199021676636983" gradientTransform="matrix(2615.496,0,0,1522.748,1797.424,-19.061)" gradientUnits="userSpaceOnUse"><stop offset="1.3043478260869565%" stop-opacity="1" style="stop-color:rgb(123,101,79)"/><stop offset="100%" stop-opacity="1" style="stop-color:rgb(0,0,0)"/></linearGradient><path d=" M 3724.92 115.686 C 3680.787 111.651 3686.461 141.67 3643.92 138.764 C 3624.437 137.434 3619.907 85.78 3583.92 84.686 C 3556.618 83.856 3482.256 92.38 3467.92 91.686 C 3439.426 90.308 3444.655 92.526 3416.92 91.686 C 3384.662 90.71 3362.726 47.784 3330.92 48.686 C 3282.781 50.052 3256.35 83.502 3208.92 91.686 C 3152.583 101.409 3111.086 23.045 3053.92 32.686 C 3014.989 39.253 2974.156 -20.281 2934.132 1.686 C 2861.882 -48.383 2840.114 -3.735 2796.92 91.686 C 2731.221 72.137 2699.692 102.679 2635.92 129.686 C 2614.136 138.912 2540.806 124.623 2518.92 138.764 C 2497.129 152.255 2489.524 185.688 2468.92 201.686 C 2439.765 203.913 2413.419 211.731 2387.951 224.497 C 2365.366 235.819 2343.471 251.031 2320.92 269.686 C 2301.102 304.464 2280.554 345.659 2259.379 393.234 C 2247.197 420.603 2148.498 392.103 2135.92 423.686 C 2127.244 445.473 2119.252 468.781 2111.805 493.509 C 2103.642 520.615 2034.96 498.301 2027.92 528.686 C 2020.892 559.021 1989.416 587.859 1984.92 622.686 C 1981.259 651.052 1921.774 642.665 1919.92 673.686 C 1902.929 695.515 1878.67 731.547 1891.233 775.605 C 1888.398 816.399 1827.324 848.876 1830.92 905.686 C 1821.817 931.264 1810.386 948.909 1808.92 978.686 C 1808.288 991.522 1802.272 1004.803 1802.92 1018.488 C 1803.71 1035.161 1795.339 1045.892 1797.92 1063.686 C 1799.568 1075.046 1811.688 1093.16 1813.951 1104.927 C 1776.957 1320.624 1829.62 1460.498 1924.92 1503.686 C 1979.126 1501.661 2025.712 1473.195 2069.094 1457.686 C 2099.785 1446.714 2128.873 1450.275 2157.92 1438.686 C 2190.236 1425.794 2199.376 1364.788 2226.92 1346.686 C 2265.767 1321.158 2331.649 1353.82 2361.003 1317.929 C 2428.95 1203.731 2485.265 1178.5 2491.92 1150.686 C 2506.371 1090.291 2659.828 1312.366 2715.92 1241.686 C 2756.014 1231.205 2791.306 1105.361 2851.92 1071.686 C 2893.816 1053.026 2939.35 1031.627 2988.11 1011.142 C 3072.714 1017.511 3109.676 963.329 3176.702 947.686 C 3287.409 945.36 3366.269 930.627 3485.886 868.874 C 3528.492 768.452 3552.731 812.293 3583.92 793.686 L 3667.92 777.686 L 3804.92 974.686 L 4412.92 961.686 C 4396.874 889.379 4373.08 814.695 4346.028 747.633 C 4336.045 722.886 4334.802 691.72 4321.92 667.686 C 4307.658 641.077 4272.611 621.68 4256.049 595.946 C 4237.5 567.124 4232.355 538.852 4210.92 511.128 C 4197.274 493.478 4168.195 476.05 4153.379 458.844 C 4137.572 440.487 4121.099 422.383 4103.96 404.533 C 4081.423 381.06 4073.759 352.283 4048.92 329.686 C 4035.224 317.227 4005.153 310.642 3990.757 298.449 C 3941.295 222.572 3877.693 175.662 3799.92 157.686 C 3770.806 154.615 3753.372 118.288 3724.92 115.686 Z " fill="url(#_lgradient_3)"/><g><path d=" M 3042.92 1938.686 C 3201.717 1825.097 3349.382 1738.774 3485.886 1679.686 C 3621.378 1686.78 3725.066 1710.123 3796.92 1749.686 C 3686.481 1756.646 3593.824 1775.322 3512.92 1805.686 C 3380.118 1853.95 3236.128 1925.627 3074.92 2036.686 C 3059.493 2002.462 3046.836 1969.805 3042.92 1938.686 Z " fill="rgb(29,22,16)"/><path d=" M 2727.888 2060.686 C 2566.419 2039.482 2349.015 2044.459 2231.92 2084.686 C 2163.41 2161.581 2131.226 2229.307 2119.92 2295.686 C 2188.815 2249.017 2191.981 2224.767 2252.92 2196.686 C 2358.683 2150.846 2614.018 2143.819 2779.043 2147.726 C 2763.484 2115.075 2747.518 2085.014 2727.888 2060.686 Z " fill="rgb(29,22,16)"/></g><g><path d=" M 2851.92 3356.686 C 2981.439 3292.545 3105.822 3251.554 3225.04 3233.685 C 3263.943 3209.908 3411.58 3161.252 3667.92 3087.686 C 3570.051 3279.882 3449.061 3402.226 3304.92 3454.686 C 3107.278 3510.57 2956.288 3477.913 2851.92 3356.686 Z " fill="rgb(202,111,101)"/><path d=" M 2851.92 3356.686 C 2898.911 3237.232 2962.588 3153.908 3042.92 3106.686 L 3142.92 3102.686 L 3212.92 3056.686 C 3410.072 3053.252 3560.082 3063.596 3662.92 3087.686 C 3475.811 3142.497 3329.861 3191.173 3225.04 3233.685 C 3135.444 3242.876 3011.081 3283.886 2851.92 3356.686 Z " fill="rgb(223,123,112)"/></g></g></g></svg>