<svg id="svg" version="1.1" xmlns="http://www.w3.org/2000/svg" xmlns:xlink="http://www.w3.org/1999/xlink" width="400" height="384.9624060150376" viewBox="0, 0, 400,384.9624060150376"><g id="svgg"><path id="path0" d="M86.079 52.234 C 85.463 52.337,84.077 52.908,82.999 53.503 C 81.921 54.097,80.087 54.797,78.922 55.058 C 77.757 55.318,76.372 55.902,75.842 56.356 C 75.313 56.809,74.230 57.508,73.436 57.910 C 72.642 58.311,71.991 58.828,71.990 59.060 C 71.988 59.291,71.376 59.896,70.630 60.405 C 68.739 61.692,64.183 66.831,63.702 68.218 C 63.482 68.850,62.934 69.750,62.483 70.219 C 62.032 70.687,61.381 72.014,61.036 73.168 C 59.738 77.507,59.565 77.975,59.042 78.574 C 57.366 80.495,57.501 91.790,59.230 94.188 C 59.664 94.791,60.364 96.658,60.787 98.336 C 61.216 100.045,61.819 101.537,62.156 101.726 C 62.487 101.911,63.120 102.789,63.563 103.678 C 64.663 105.886,71.376 112.640,73.615 113.792 C 74.613 114.305,75.604 115.052,75.818 115.451 C 76.082 115.945,77.098 116.379,78.984 116.805 C 80.511 117.150,82.551 117.906,83.518 118.485 C 86.231 120.112,96.417 120.098,99.855 118.463 C 101.099 117.871,103.247 117.125,104.629 116.805 C 106.396 116.395,107.364 115.940,107.890 115.272 C 108.301 114.749,109.185 114.092,109.855 113.813 C 111.746 113.022,119.130 105.765,120.064 103.778 C 120.505 102.839,121.140 101.917,121.475 101.729 C 121.820 101.536,122.417 100.066,122.852 98.336 C 123.274 96.658,123.974 94.791,124.409 94.188 C 126.127 91.803,126.274 80.537,124.612 78.574 C 124.001 77.851,123.483 76.503,122.608 73.351 C 122.246 72.047,121.568 70.681,121.043 70.193 C 120.533 69.721,120.115 68.982,120.115 68.551 C 120.115 67.163,111.895 58.768,109.483 57.693 C 108.611 57.305,107.681 56.725,107.416 56.406 C 107.151 56.087,105.872 55.497,104.574 55.095 C 103.276 54.693,101.174 53.879,99.904 53.286 C 97.594 52.209,89.791 51.615,86.079 52.234 M262.522 139.543 C 260.489 139.832,257.676 140.423,256.270 140.858 C 254.864 141.292,252.802 141.757,251.688 141.891 C 248.705 142.250,246.790 142.798,245.661 143.616 C 245.110 144.016,243.818 144.527,242.790 144.752 C 240.688 145.212,238.828 146.075,238.625 146.686 C 238.550 146.910,237.347 147.508,235.951 148.015 C 234.553 148.522,232.884 149.466,232.232 150.118 C 231.582 150.768,230.808 151.299,230.511 151.299 C 230.214 151.299,229.551 151.749,229.037 152.298 C 228.524 152.848,227.584 153.561,226.949 153.883 C 225.238 154.751,215.892 164.290,214.273 166.820 C 212.690 169.295,211.759 169.594,210.692 167.968 C 210.093 167.054,209.986 165.613,209.817 156.130 L 209.625 145.332 183.873 145.233 C 165.172 145.161,157.979 145.253,157.598 145.569 C 156.815 146.219,156.814 326.158,157.598 326.808 C 157.979 327.124,165.573 327.216,185.413 327.144 L 212.705 327.045 212.941 276.227 C 213.189 223.087,213.213 222.387,214.898 218.707 C 215.549 217.284,215.992 214.898,216.341 210.929 C 216.353 210.799,216.857 210.070,217.462 209.308 C 218.068 208.546,218.785 207.130,219.057 206.161 C 219.328 205.191,219.917 204.101,220.366 203.739 C 220.815 203.376,221.354 202.693,221.564 202.219 C 222.356 200.427,226.883 195.580,228.493 194.801 C 229.387 194.368,230.430 193.670,230.809 193.251 C 231.188 192.832,232.207 192.306,233.074 192.083 C 233.940 191.859,235.082 191.370,235.611 190.996 C 239.202 188.459,258.591 188.134,261.213 190.567 C 261.636 190.961,262.953 191.644,264.139 192.086 C 266.627 193.014,270.927 197.124,271.936 199.540 C 272.263 200.322,272.685 200.962,272.873 200.962 C 273.406 200.962,274.023 202.593,274.500 205.262 C 274.739 206.603,275.184 208.085,275.487 208.556 C 277.367 211.472,277.314 209.867,277.548 270.452 L 277.767 327.045 305.058 327.144 C 325.202 327.217,332.490 327.127,332.884 326.800 C 333.336 326.424,333.392 316.956,333.246 264.718 C 333.065 199.647,333.041 198.507,331.835 196.275 C 331.280 195.247,330.915 193.292,330.507 189.152 C 329.887 182.874,329.723 182.062,328.735 180.366 C 328.364 179.731,327.790 177.763,327.458 175.995 C 327.038 173.760,326.564 172.434,325.906 171.651 C 325.045 170.629,324.165 168.382,324.160 167.193 C 324.159 166.936,323.637 166.132,323.000 165.407 C 322.363 164.681,321.497 163.308,321.075 162.355 C 320.653 161.401,320.057 160.525,319.750 160.407 C 319.443 160.289,318.871 159.568,318.478 158.803 C 318.086 158.039,317.341 157.202,316.823 156.944 C 316.305 156.685,315.650 155.993,315.368 155.405 C 315.086 154.817,314.457 154.185,313.970 154.000 C 313.482 153.814,312.721 153.154,312.279 152.532 C 311.836 151.910,310.958 151.187,310.327 150.926 C 309.697 150.665,308.930 150.069,308.623 149.600 C 308.317 149.132,307.323 148.527,306.414 148.255 C 305.506 147.983,304.293 147.257,303.718 146.641 C 302.894 145.759,302.036 145.393,299.652 144.907 C 297.991 144.568,296.285 143.973,295.861 143.584 C 294.926 142.724,292.696 142.221,288.354 141.887 C 284.868 141.620,282.748 141.112,281.809 140.320 C 281.263 139.858,279.012 139.647,269.875 139.197 C 267.792 139.095,264.626 139.243,262.522 139.543 M64.087 145.618 C 63.985 145.884,63.947 186.814,64.001 236.574 L 64.100 327.045 91.819 327.045 L 119.538 327.045 119.538 236.189 L 119.538 145.332 91.904 145.233 C 70.001 145.155,64.232 145.235,64.087 145.618 " stroke="none" fill="#fafbfb" fill-rule="evenodd"></path><path id="path1" d="M83.271 50.814 C 81.395 51.211,80.077 51.847,80.077 52.355 C 80.077 52.551,78.870 53.070,77.395 53.509 C 75.920 53.948,74.488 54.629,74.213 55.023 C 73.937 55.416,73.087 55.999,72.323 56.318 C 70.972 56.882,68.700 58.737,66.647 60.952 C 63.678 64.155,62.736 65.327,62.314 66.347 C 62.058 66.966,61.479 67.842,61.027 68.293 C 60.576 68.744,59.911 70.016,59.550 71.120 C 59.189 72.223,58.475 73.744,57.962 74.500 C 55.565 78.031,55.795 94.742,58.287 98.119 C 58.804 98.820,59.432 100.246,59.682 101.288 C 59.948 102.399,60.498 103.466,61.011 103.870 C 61.493 104.249,62.239 105.244,62.669 106.081 C 63.760 108.202,69.740 114.189,71.801 115.222 C 72.436 115.541,73.290 116.170,73.697 116.620 C 74.104 117.070,75.403 117.714,76.584 118.051 C 77.764 118.387,79.076 118.968,79.500 119.341 C 82.249 121.764,101.449 121.752,104.139 119.325 C 104.562 118.943,105.736 118.423,106.747 118.170 C 107.759 117.916,108.885 117.335,109.250 116.878 C 109.615 116.421,110.693 115.643,111.646 115.150 C 112.599 114.657,113.898 113.758,114.533 113.153 C 119.129 108.771,120.197 107.606,120.926 106.176 C 121.380 105.287,122.145 104.249,122.627 103.870 C 123.141 103.466,123.690 102.399,123.957 101.288 C 124.206 100.246,124.834 98.820,125.351 98.119 C 127.925 94.631,128.045 77.227,125.513 74.695 C 125.116 74.297,124.494 72.914,124.130 71.620 C 123.766 70.319,123.108 68.972,122.659 68.608 C 122.213 68.246,121.565 67.344,121.219 66.603 C 120.560 65.190,118.203 62.043,116.776 60.670 C 113.149 57.180,111.818 56.214,110.631 56.210 C 110.179 56.209,109.536 55.791,109.202 55.281 C 108.837 54.723,107.785 54.091,106.559 53.693 C 105.440 53.329,104.177 52.718,103.754 52.335 C 103.330 51.953,102.464 51.430,101.829 51.174 C 100.411 50.602,85.623 50.316,83.271 50.814 M98.087 51.206 C 99.844 51.434,101.502 51.928,102.527 52.529 C 103.427 53.057,104.933 53.759,105.873 54.091 C 106.813 54.423,107.933 55.018,108.362 55.414 C 108.792 55.810,109.754 56.386,110.501 56.693 C 113.281 57.837,118.621 63.215,120.533 66.795 C 120.985 67.642,121.753 68.768,122.240 69.297 C 122.727 69.827,123.382 71.126,123.697 72.185 C 124.011 73.244,124.763 75.055,125.368 76.211 L 126.468 78.312 126.468 86.221 C 126.468 93.993,126.451 94.162,125.464 96.054 C 124.913 97.113,124.161 98.894,123.793 100.012 C 123.426 101.130,122.732 102.516,122.251 103.092 C 121.769 103.668,121.010 104.859,120.563 105.739 C 119.612 107.614,113.545 113.370,111.175 114.647 C 110.273 115.133,109.100 115.935,108.569 116.429 C 108.038 116.923,106.910 117.546,106.064 117.814 C 105.217 118.081,103.657 118.752,102.599 119.304 C 99.607 120.864,84.032 120.865,81.039 119.305 C 79.981 118.753,78.218 118.007,77.123 117.647 C 76.028 117.288,74.930 116.751,74.684 116.454 C 74.438 116.158,73.429 115.448,72.441 114.877 C 70.071 113.507,64.494 108.056,63.227 105.871 C 62.674 104.918,61.838 103.668,61.367 103.092 C 60.897 102.516,60.212 101.130,59.845 100.012 C 59.478 98.894,58.726 97.113,58.174 96.054 C 56.914 93.637,56.467 81.889,57.499 78.345 C 58.360 75.392,60.816 69.582,61.568 68.720 C 61.937 68.296,62.685 67.168,63.229 66.212 C 64.878 63.317,72.318 56.208,73.700 56.208 C 73.965 56.208,74.496 55.862,74.879 55.439 C 75.261 55.016,76.544 54.373,77.729 54.009 C 78.915 53.646,80.492 52.957,81.236 52.478 C 83.585 50.965,91.583 50.361,98.087 51.206 M260.211 137.803 C 254.988 138.055,254.412 138.160,252.092 139.279 C 250.114 140.233,246.152 141.267,244.399 141.287 C 244.257 141.288,243.650 141.701,243.052 142.203 C 242.453 142.706,240.924 143.431,239.654 143.814 C 238.383 144.197,236.973 144.884,236.519 145.341 C 236.065 145.798,234.882 146.399,233.888 146.677 C 232.731 147.001,231.793 147.573,231.278 148.271 C 230.835 148.869,229.940 149.538,229.289 149.757 C 228.637 149.976,227.517 150.672,226.801 151.305 C 226.084 151.937,225.342 152.454,225.153 152.454 C 224.604 152.454,213.897 163.297,213.084 164.678 C 211.543 167.290,211.370 166.296,211.356 154.764 C 211.345 144.704,211.334 144.634,209.688 144.009 C 207.813 143.296,158.471 143.455,157.072 144.178 C 155.424 145.030,155.499 140.248,155.617 237.281 L 155.727 327.306 156.636 328.042 C 157.854 329.029,212.159 329.210,213.497 328.231 C 214.227 327.698,214.251 326.625,214.508 282.514 C 214.777 236.551,214.995 228.518,216.072 224.926 C 216.405 223.814,216.795 221.388,216.938 219.536 C 217.255 215.431,217.742 213.414,218.717 212.175 C 219.124 211.657,219.821 210.035,220.266 208.571 C 220.711 207.106,221.322 205.813,221.624 205.697 C 221.925 205.581,222.580 204.685,223.079 203.706 C 224.044 201.812,229.775 195.955,230.658 195.961 C 230.947 195.963,231.617 195.439,232.146 194.797 C 232.984 193.781,233.605 193.530,236.943 192.860 C 239.052 192.437,241.218 191.791,241.756 191.425 C 243.272 190.394,256.341 190.433,257.490 191.472 C 257.923 191.863,259.469 192.496,260.926 192.879 C 263.793 193.631,269.782 198.716,270.448 200.962 C 270.605 201.492,271.039 202.271,271.413 202.695 C 272.347 203.752,272.873 205.587,273.332 209.391 C 273.547 211.168,274.017 213.160,274.376 213.818 C 275.543 215.955,275.703 222.144,275.968 275.392 C 276.222 326.555,276.243 327.697,276.974 328.231 C 278.313 329.210,332.618 329.028,333.836 328.042 L 334.745 327.305 334.745 262.883 C 334.745 193.754,334.728 193.097,332.814 188.643 C 332.228 187.280,331.758 185.107,331.496 182.543 C 331.066 178.339,331.008 178.139,329.862 176.862 C 329.457 176.411,328.868 174.709,328.529 173.012 C 328.130 171.016,327.620 169.641,327.045 169.009 C 326.562 168.479,325.894 167.085,325.560 165.911 C 325.212 164.688,324.520 163.372,323.940 162.831 C 323.383 162.312,322.606 161.258,322.212 160.490 C 321.818 159.722,321.234 158.994,320.914 158.871 C 320.594 158.748,320.076 158.034,319.763 157.284 C 319.449 156.534,318.794 155.734,318.307 155.505 C 317.819 155.276,317.071 154.539,316.645 153.868 C 316.218 153.196,315.505 152.595,315.061 152.531 C 314.617 152.467,314.060 151.989,313.823 151.469 C 313.586 150.949,312.784 150.234,312.042 149.880 C 311.299 149.525,310.586 148.903,310.457 148.497 C 310.323 148.075,309.290 147.348,308.047 146.802 C 306.850 146.276,305.502 145.502,305.050 145.083 C 304.598 144.663,303.212 144.057,301.970 143.735 C 300.728 143.414,299.365 142.844,298.941 142.470 C 297.894 141.545,297.177 141.319,293.236 140.676 C 291.368 140.372,289.202 139.808,288.423 139.424 C 285.452 137.959,272.452 137.212,260.211 137.803 M285.286 139.499 C 287.092 140.007,289.863 140.629,291.445 140.883 C 295.025 141.457,296.743 141.982,297.979 142.880 C 298.508 143.265,300.062 143.837,301.431 144.152 C 302.934 144.498,304.155 145.026,304.511 145.484 C 304.835 145.902,305.881 146.546,306.833 146.917 C 309.367 147.901,317.447 155.247,320.609 159.441 C 323.928 163.843,324.708 165.071,325.181 166.643 C 325.461 167.575,326.189 169.090,326.798 170.010 C 327.548 171.141,327.988 172.409,328.160 173.929 C 328.325 175.389,328.762 176.689,329.407 177.638 C 330.050 178.584,330.529 180.003,330.764 181.658 C 330.963 183.064,331.482 185.861,331.917 187.873 C 333.316 194.347,333.417 194.937,333.777 198.653 C 333.974 200.694,334.138 229.898,334.149 264.752 L 334.167 327.194 333.312 327.793 C 332.557 328.322,329.253 328.393,305.275 328.393 L 278.094 328.393 277.283 327.526 L 276.472 326.660 276.341 271.222 L 276.210 215.784 275.333 213.667 C 274.851 212.502,274.127 209.860,273.724 207.794 C 272.478 201.414,266.420 193.387,262.305 192.666 C 261.493 192.524,260.221 192.056,259.480 191.627 C 255.349 189.235,243.666 189.157,239.152 191.491 C 238.576 191.789,236.992 192.252,235.633 192.519 C 233.824 192.875,232.794 193.335,231.788 194.237 C 231.032 194.914,229.883 195.739,229.234 196.071 C 227.894 196.755,223.322 201.721,222.425 203.466 C 222.098 204.102,221.466 204.951,221.021 205.354 C 220.576 205.757,220.212 206.378,220.212 206.734 C 220.212 207.091,219.522 208.755,218.680 210.433 C 217.381 213.020,217.029 214.275,216.369 218.677 C 215.940 221.533,215.301 224.735,214.947 225.794 C 214.364 227.542,214.290 232.278,214.148 277.190 L 213.991 326.660 213.184 327.526 L 212.378 328.393 185.197 328.393 C 161.219 328.393,157.915 328.322,157.160 327.793 L 156.304 327.194 156.304 236.244 C 156.304 166.018,156.409 145.188,156.766 144.832 C 157.586 144.012,209.356 144.182,210.268 145.007 C 210.914 145.591,210.972 146.430,210.974 155.113 C 210.977 167.111,211.416 169.174,213.236 165.743 C 214.379 163.590,224.498 153.324,226.165 152.628 C 226.842 152.345,227.630 151.831,227.916 151.486 C 228.203 151.141,229.100 150.520,229.909 150.107 C 230.719 149.694,231.595 149.014,231.856 148.596 C 232.117 148.177,233.199 147.549,234.260 147.201 C 235.321 146.852,236.673 146.163,237.265 145.671 C 237.857 145.178,239.069 144.581,239.960 144.345 C 240.850 144.109,242.445 143.429,243.503 142.834 C 244.562 142.239,246.737 141.486,248.336 141.160 C 249.936 140.834,252.188 140.190,253.341 139.727 C 257.881 137.907,279.075 137.756,285.286 139.499 M63.828 144.192 C 62.271 145.044,62.333 140.829,62.450 237.207 C 62.558 325.040,62.577 327.176,63.294 327.967 C 64.452 329.247,119.186 329.247,120.345 327.967 C 121.457 326.738,121.502 145.591,120.391 144.480 C 119.424 143.512,65.572 143.238,63.828 144.192 M120.038 144.832 C 120.866 145.659,120.692 326.773,119.863 327.689 C 118.925 328.726,64.985 328.790,63.842 327.756 C 62.954 326.952,62.714 145.717,63.600 144.832 C 64.268 144.163,119.370 144.163,120.038 144.832 " stroke="none" fill="#449ccc" fill-rule="evenodd"></path><path id="path2" d="M84.700 51.258 C 83.538 51.451,81.979 52.000,81.236 52.478 C 80.492 52.957,78.915 53.646,77.729 54.009 C 76.544 54.373,75.261 55.016,74.879 55.439 C 74.496 55.862,73.965 56.208,73.700 56.208 C 72.318 56.208,64.878 63.317,63.229 66.212 C 62.685 67.168,61.937 68.296,61.568 68.720 C 60.816 69.582,58.360 75.392,57.499 78.345 C 56.467 81.889,56.914 93.637,58.174 96.054 C 58.726 97.113,59.478 98.894,59.845 100.012 C 60.212 101.130,60.897 102.516,61.367 103.092 C 61.838 103.668,62.674 104.918,63.227 105.871 C 64.494 108.056,70.071 113.507,72.441 114.877 C 73.429 115.448,74.438 116.158,74.684 116.454 C 74.930 116.751,76.028 117.288,77.123 117.647 C 78.218 118.007,79.981 118.753,81.039 119.305 C 84.032 120.865,99.607 120.864,102.599 119.304 C 103.657 118.752,105.217 118.081,106.064 117.814 C 106.910 117.546,108.038 116.923,108.569 116.429 C 109.100 115.935,110.273 115.133,111.175 114.647 C 113.545 113.370,119.612 107.614,120.563 105.739 C 121.010 104.859,121.769 103.668,122.251 103.092 C 122.732 102.516,123.426 101.130,123.793 100.012 C 124.161 98.894,124.913 97.113,125.464 96.054 C 126.451 94.162,126.468 93.993,126.468 86.221 L 126.468 78.312 125.368 76.211 C 124.763 75.055,124.011 73.244,123.697 72.185 C 123.382 71.126,122.727 69.827,122.240 69.297 C 121.753 68.768,120.985 67.642,120.533 66.795 C 118.621 63.215,113.281 57.837,110.501 56.693 C 109.754 56.386,108.792 55.810,108.362 55.414 C 107.933 55.018,106.813 54.423,105.873 54.091 C 104.933 53.759,103.427 53.057,102.527 52.529 C 99.870 50.972,90.474 50.302,84.700 51.258 M99.904 53.286 C 101.174 53.879,103.276 54.693,104.574 55.095 C 105.872 55.497,107.151 56.087,107.416 56.406 C 107.681 56.725,108.611 57.305,109.483 57.693 C 111.895 58.768,120.115 67.163,120.115 68.551 C 120.115 68.982,120.533 69.721,121.043 70.193 C 121.568 70.681,122.246 72.047,122.608 73.351 C 123.483 76.503,124.001 77.851,124.612 78.574 C 126.274 80.537,126.127 91.803,124.409 94.188 C 123.974 94.791,123.274 96.658,122.852 98.336 C 122.417 100.066,121.820 101.536,121.475 101.729 C 121.140 101.917,120.505 102.839,120.064 103.778 C 119.130 105.765,111.746 113.022,109.855 113.813 C 109.185 114.092,108.301 114.749,107.890 115.272 C 107.364 115.940,106.396 116.395,104.629 116.805 C 103.247 117.125,101.099 117.871,99.855 118.463 C 96.417 120.098,86.231 120.112,83.518 118.485 C 82.551 117.906,80.511 117.150,78.984 116.805 C 77.098 116.379,76.082 115.945,75.818 115.451 C 75.604 115.052,74.613 114.305,73.615 113.792 C 71.376 112.640,64.663 105.886,63.563 103.678 C 63.120 102.789,62.487 101.911,62.156 101.726 C 61.819 101.537,61.216 100.045,60.787 98.336 C 60.364 96.658,59.664 94.791,59.230 94.188 C 57.501 91.790,57.366 80.495,59.042 78.574 C 59.565 77.975,59.738 77.507,61.036 73.168 C 61.381 72.014,62.032 70.687,62.483 70.219 C 62.934 69.750,63.482 68.850,63.702 68.218 C 64.183 66.831,68.739 61.692,70.630 60.405 C 71.376 59.896,71.988 59.291,71.990 59.060 C 71.991 58.828,72.642 58.311,73.436 57.910 C 74.230 57.508,75.313 56.809,75.842 56.356 C 76.372 55.902,77.757 55.318,78.922 55.058 C 80.087 54.797,81.921 54.097,82.999 53.503 C 86.560 51.537,95.899 51.418,99.904 53.286 M258.518 138.574 C 256.824 138.746,254.494 139.265,253.341 139.727 C 252.188 140.190,249.936 140.834,248.336 141.160 C 246.737 141.486,244.562 142.239,243.503 142.834 C 242.445 143.429,240.850 144.109,239.960 144.345 C 239.069 144.581,237.857 145.178,237.265 145.671 C 236.673 146.163,235.321 146.852,234.260 147.201 C 233.199 147.549,232.117 148.177,231.856 148.596 C 231.595 149.014,230.719 149.694,229.909 150.107 C 229.100 150.520,228.203 151.141,227.916 151.486 C 227.630 151.831,226.842 152.345,226.165 152.628 C 224.498 153.324,214.379 163.590,213.236 165.743 C 211.416 169.174,210.977 167.111,210.974 155.113 C 210.972 146.430,210.914 145.591,210.268 145.007 C 209.356 144.182,157.586 144.012,156.766 144.832 C 156.409 145.188,156.304 166.018,156.304 236.244 L 156.304 327.194 157.160 327.793 C 157.915 328.322,161.219 328.393,185.197 328.393 L 212.378 328.393 213.184 327.526 L 213.991 326.660 214.148 277.190 C 214.290 232.278,214.364 227.542,214.947 225.794 C 215.301 224.735,215.940 221.533,216.369 218.677 C 217.029 214.275,217.381 213.020,218.680 210.433 C 219.522 208.755,220.212 207.091,220.212 206.734 C 220.212 206.378,220.576 205.757,221.021 205.354 C 221.466 204.951,222.098 204.102,222.425 203.466 C 223.322 201.721,227.894 196.755,229.234 196.071 C 229.883 195.739,231.032 194.914,231.788 194.237 C 232.794 193.335,233.824 192.875,235.633 192.519 C 236.992 192.252,238.576 191.789,239.152 191.491 C 243.666 189.157,255.349 189.235,259.480 191.627 C 260.221 192.056,261.493 192.524,262.305 192.666 C 266.420 193.387,272.478 201.414,273.724 207.794 C 274.127 209.860,274.851 212.502,275.333 213.667 L 276.210 215.784 276.341 271.222 L 276.472 326.660 277.283 327.526 L 278.094 328.393 305.275 328.393 C 329.253 328.393,332.557 328.322,333.312 327.793 L 334.167 327.194 334.149 264.752 C 334.138 229.898,333.974 200.694,333.777 198.653 C 333.417 194.937,333.316 194.347,331.917 187.873 C 331.482 185.861,330.963 183.064,330.764 181.658 C 330.529 180.003,330.050 178.584,329.407 177.638 C 328.762 176.689,328.325 175.389,328.160 173.929 C 327.988 172.409,327.548 171.141,326.798 170.010 C 326.189 169.090,325.461 167.575,325.181 166.643 C 324.708 165.071,323.928 163.843,320.609 159.441 C 317.447 155.247,309.367 147.901,306.833 146.917 C 305.881 146.546,304.835 145.902,304.511 145.484 C 304.155 145.026,302.934 144.498,301.431 144.152 C 300.062 143.837,298.508 143.265,297.979 142.880 C 296.743 141.982,295.025 141.457,291.445 140.883 C 289.863 140.629,287.092 140.007,285.286 139.499 C 281.647 138.478,265.109 137.906,258.518 138.574 M277.382 139.605 C 279.605 139.736,281.476 140.038,281.809 140.320 C 282.748 141.112,284.868 141.620,288.354 141.887 C 292.696 142.221,294.926 142.724,295.861 143.584 C 296.285 143.973,297.991 144.568,299.652 144.907 C 302.036 145.393,302.894 145.759,303.718 146.641 C 304.293 147.257,305.506 147.983,306.414 148.255 C 307.323 148.527,308.317 149.132,308.623 149.600 C 308.930 150.069,309.697 150.665,310.327 150.926 C 310.958 151.187,311.836 151.910,312.279 152.532 C 312.721 153.154,313.482 153.814,313.970 154.000 C 314.457 154.185,315.086 154.817,315.368 155.405 C 315.650 155.993,316.305 156.685,316.823 156.944 C 317.341 157.202,318.086 158.039,318.478 158.803 C 318.871 159.568,319.443 160.289,319.750 160.407 C 320.057 160.525,320.653 161.401,321.075 162.355 C 321.497 163.308,322.363 164.681,323.000 165.407 C 323.637 166.132,324.159 166.936,324.160 167.193 C 324.165 168.382,325.045 170.629,325.906 171.651 C 326.564 172.434,327.038 173.760,327.458 175.995 C 327.790 177.763,328.364 179.731,328.735 180.366 C 329.723 182.062,329.887 182.874,330.507 189.152 C 330.915 193.292,331.280 195.247,331.835 196.275 C 333.041 198.507,333.065 199.647,333.246 264.718 C 333.392 316.956,333.336 326.424,332.884 326.800 C 332.490 327.127,325.202 327.217,305.058 327.144 L 277.767 327.045 277.548 270.452 C 277.314 209.867,277.367 211.472,275.487 208.556 C 275.184 208.085,274.739 206.603,274.500 205.262 C 274.023 202.593,273.406 200.962,272.873 200.962 C 272.685 200.962,272.263 200.322,271.936 199.540 C 270.927 197.124,266.627 193.014,264.139 192.086 C 262.953 191.644,261.636 190.961,261.213 190.567 C 259.754 189.214,257.316 188.945,248.061 189.118 C 239.088 189.286,237.744 189.489,235.611 190.996 C 235.082 191.370,233.940 191.859,233.074 192.083 C 232.207 192.306,231.188 192.832,230.809 193.251 C 230.430 193.670,229.387 194.368,228.493 194.801 C 226.883 195.580,222.356 200.427,221.564 202.219 C 221.354 202.693,220.815 203.376,220.366 203.739 C 219.917 204.101,219.328 205.191,219.057 206.161 C 218.785 207.130,218.068 208.546,217.462 209.308 C 216.857 210.070,216.353 210.799,216.341 210.929 C 215.992 214.898,215.549 217.284,214.898 218.707 C 213.213 222.387,213.189 223.087,212.941 276.227 L 212.705 327.045 185.413 327.144 C 165.573 327.216,157.979 327.124,157.598 326.808 C 156.814 326.158,156.815 146.219,157.598 145.569 C 157.979 145.253,165.172 145.161,183.873 145.233 L 209.625 145.332 209.817 156.130 C 209.986 165.613,210.093 167.054,210.692 167.968 C 211.759 169.594,212.690 169.295,214.273 166.820 C 215.892 164.290,225.238 154.751,226.949 153.883 C 227.584 153.561,228.524 152.848,229.037 152.298 C 229.551 151.749,230.214 151.299,230.511 151.299 C 230.808 151.299,231.582 150.768,232.232 150.118 C 232.884 149.466,234.553 148.522,235.951 148.015 C 237.347 147.508,238.550 146.910,238.625 146.686 C 238.828 146.075,240.688 145.212,242.790 144.752 C 243.818 144.527,245.110 144.016,245.661 143.616 C 246.790 142.798,248.705 142.250,251.688 141.891 C 252.802 141.757,254.864 141.292,256.270 140.858 C 257.676 140.423,260.489 139.832,262.522 139.543 C 266.037 139.043,268.017 139.051,277.382 139.605 M63.600 144.832 C 62.714 145.717,62.954 326.952,63.842 327.756 C 64.985 328.790,118.925 328.726,119.863 327.689 C 120.692 326.773,120.866 145.659,120.038 144.832 C 119.370 144.163,64.268 144.163,63.600 144.832 M119.538 236.189 L 119.538 327.045 91.819 327.045 L 64.100 327.045 64.001 236.574 C 63.947 186.814,63.985 145.884,64.087 145.618 C 64.232 145.235,70.001 145.155,91.904 145.233 L 119.538 145.332 119.538 236.189 " stroke="none" fill="#84bcdc" fill-rule="evenodd"></path><path id="path3" d="M19.634 0.770 C 19.634 1.556,18.462 1.764,15.251 1.546 C 13.923 1.456,13.448 2.083,13.740 3.543 C 13.940 4.542,13.867 4.620,12.725 4.620 C 11.152 4.620,10.420 5.351,10.672 6.669 C 10.862 7.661,9.899 8.047,7.988 7.745 C 7.830 7.720,7.720 7.830,7.745 7.988 C 7.770 8.147,7.770 9.519,7.745 11.036 L 7.700 13.796 6.346 13.688 C 5.240 13.600,4.957 13.729,4.799 14.394 C 4.692 14.841,4.652 95.332,4.709 193.263 L 4.812 371.319 6.256 371.438 L 7.700 371.558 7.745 374.133 C 7.770 375.549,7.770 376.838,7.745 376.997 C 7.720 377.156,8.413 377.286,9.285 377.286 C 10.797 377.286,10.860 377.333,10.672 378.320 C 10.361 379.947,10.716 380.366,12.406 380.366 C 13.873 380.366,13.939 380.417,13.752 381.400 C 13.401 383.234,13.715 383.446,16.788 383.446 C 19.378 383.446,19.634 383.515,19.634 384.216 C 19.634 385.266,20.311 385.192,20.518 384.119 L 20.684 383.253 20.737 384.119 L 20.789 384.986 199.038 384.986 C 377.029 384.986,377.286 384.984,377.286 384.216 C 377.286 383.530,377.559 383.440,379.788 383.397 C 381.165 383.371,382.496 383.328,382.747 383.301 C 382.997 383.275,383.272 382.647,383.356 381.906 C 383.545 380.256,383.484 380.315,385.050 380.237 C 385.756 380.202,386.355 379.957,386.381 379.692 C 386.408 379.427,386.451 378.778,386.477 378.248 C 386.519 377.414,386.705 377.286,387.873 377.286 C 388.659 377.286,389.248 377.085,389.286 376.805 C 389.419 375.836,389.498 374.747,389.551 373.147 C 389.604 371.544,389.633 371.511,390.954 371.511 L 392.302 371.511 392.299 192.525 L 392.297 13.539 390.951 13.645 C 389.651 13.749,389.604 13.706,389.552 12.362 C 389.406 8.546,389.291 7.689,388.932 7.745 C 387.164 8.024,386.569 7.667,386.452 6.256 C 386.340 4.891,386.255 4.806,384.889 4.693 C 383.714 4.596,383.437 4.417,383.401 3.730 C 383.377 3.267,383.333 2.628,383.305 2.310 C 383.265 1.861,382.586 1.707,380.269 1.620 C 377.602 1.519,377.286 1.428,377.286 0.754 C 377.286 0.006,375.752 -0.000,198.993 -0.000 L 20.699 -0.000 20.871 0.898 C 20.971 1.421,20.857 1.797,20.597 1.797 C 20.337 1.797,20.222 1.421,20.322 0.898 C 20.419 0.391,20.307 -0.000,20.064 -0.000 C 19.828 -0.000,19.634 0.346,19.634 0.770 M104.909 49.997 C 105.776 50.180,106.152 50.540,106.418 51.444 C 106.752 52.576,106.909 52.661,109.074 52.888 C 111.664 53.158,112.416 53.601,112.416 54.858 C 112.416 55.567,112.688 55.768,113.914 55.964 C 115.405 56.203,115.881 56.734,115.881 58.164 C 115.881 58.726,116.154 58.903,117.022 58.903 C 118.235 58.903,118.961 59.757,118.961 61.187 C 118.961 61.761,119.208 61.983,119.846 61.983 C 121.029 61.983,121.655 62.675,121.655 63.985 C 121.655 64.844,121.831 65.064,122.522 65.068 C 124.154 65.080,124.507 65.644,124.669 68.505 C 124.812 71.045,124.880 71.222,125.714 71.222 C 127.806 71.222,127.816 71.292,127.809 85.976 C 127.803 100.564,127.842 100.254,125.987 100.656 C 124.738 100.927,124.735 100.933,124.735 103.322 C 124.735 105.975,124.338 106.641,122.757 106.641 C 121.816 106.641,121.689 106.797,121.582 108.085 C 121.473 109.403,121.354 109.539,120.212 109.649 C 119.187 109.748,118.961 109.934,118.961 110.680 C 118.961 111.854,118.003 112.801,116.816 112.801 C 116.082 112.801,115.881 113.002,115.881 113.736 C 115.881 114.994,114.915 115.881,113.543 115.881 C 112.632 115.881,112.415 116.047,112.410 116.747 C 112.400 118.234,111.863 118.584,109.212 118.832 C 106.910 119.047,106.641 119.159,106.641 119.902 C 106.641 121.634,106.462 121.655,91.819 121.655 C 77.105 121.655,76.997 121.642,76.997 119.846 C 76.997 119.042,76.823 118.961,75.097 118.961 C 72.393 118.961,71.376 118.479,71.094 117.066 C 70.906 116.129,70.659 115.881,69.912 115.881 C 68.707 115.881,67.757 114.935,67.757 113.736 C 67.757 113.002,67.556 112.801,66.822 112.801 C 65.635 112.801,64.678 111.854,64.678 110.680 C 64.678 109.934,64.451 109.748,63.426 109.649 C 62.284 109.539,62.165 109.403,62.056 108.085 C 61.949 106.797,61.822 106.641,60.881 106.641 C 59.300 106.641,58.903 105.975,58.903 103.322 C 58.903 100.933,58.900 100.927,57.652 100.656 C 55.796 100.253,55.835 100.574,55.829 85.803 C 55.823 71.164,55.787 71.434,57.748 71.163 C 58.642 71.039,58.724 70.848,58.903 68.450 C 59.112 65.649,59.365 65.195,60.828 64.999 C 61.600 64.896,61.828 64.604,61.983 63.523 C 62.153 62.332,62.320 62.161,63.426 62.055 C 64.381 61.962,64.678 61.751,64.678 61.163 C 64.678 59.757,65.410 58.903,66.616 58.903 C 67.485 58.903,67.757 58.726,67.757 58.164 C 67.757 56.734,68.233 56.203,69.724 55.964 C 70.950 55.768,71.222 55.567,71.222 54.858 C 71.222 53.587,72.074 53.082,74.607 52.853 C 76.736 52.660,76.885 52.580,77.220 51.444 C 77.709 49.786,77.982 49.754,91.819 49.754 C 98.383 49.754,104.273 49.864,104.909 49.997 M292.597 137.825 C 292.798 138.142,292.965 138.792,292.968 139.269 C 292.974 140.111,293.084 140.135,296.989 140.135 C 301.363 140.135,302.214 140.484,302.214 142.280 C 302.214 143.169,302.330 143.215,304.620 143.221 C 307.394 143.227,307.775 143.404,308.129 144.851 C 308.327 145.659,308.619 145.910,309.362 145.910 C 310.751 145.910,312.413 146.864,313.374 148.214 C 313.829 148.852,314.521 149.374,314.913 149.374 C 316.256 149.374,316.822 149.835,317.064 151.123 C 317.271 152.224,317.482 152.428,318.518 152.529 C 319.580 152.632,319.754 152.814,319.923 153.994 C 320.070 155.024,320.319 155.371,320.978 155.464 C 322.158 155.632,322.952 156.891,323.238 159.047 C 323.460 160.717,323.574 160.873,324.738 161.092 C 326.017 161.332,326.451 162.033,326.463 163.882 C 326.465 164.353,326.775 164.820,327.168 164.944 C 328.345 165.318,329.163 167.622,329.163 170.562 C 329.163 172.987,329.236 173.244,329.933 173.244 C 331.850 173.244,332.243 174.387,332.243 179.981 L 332.243 185.178 333.178 185.178 C 335.487 185.178,335.322 179.620,335.322 257.778 L 335.322 329.167 305.390 329.069 L 275.457 328.970 275.360 277.905 L 275.262 226.839 274.312 226.601 C 272.616 226.175,272.445 225.233,272.259 215.303 C 272.085 206.036,272.077 205.967,271.249 205.967 C 269.891 205.967,269.490 205.204,269.490 202.618 C 269.490 200.423,269.414 200.192,268.695 200.192 C 267.265 200.192,266.410 199.467,266.410 198.254 C 266.410 197.288,266.259 197.113,265.432 197.113 C 264.079 197.113,261.509 195.737,261.232 194.864 C 261.046 194.279,260.481 194.099,258.226 193.910 C 255.345 193.669,254.475 193.142,254.475 191.637 C 254.475 190.441,245.095 190.781,244.924 191.984 C 244.717 193.440,243.836 193.768,239.633 193.955 C 236.073 194.113,235.611 194.214,235.611 194.831 C 235.611 195.826,234.197 196.684,232.098 196.963 C 230.419 197.186,230.273 197.294,230.049 198.490 C 229.846 199.569,229.602 199.817,228.546 200.015 C 227.549 200.202,227.209 200.507,226.924 201.473 C 226.628 202.479,226.342 202.716,225.313 202.816 C 224.067 202.936,224.062 202.946,224.062 205.055 C 224.062 207.781,223.588 208.662,222.123 208.662 L 220.982 208.662 220.976 211.261 C 220.969 214.314,220.811 214.637,219.153 214.997 L 217.902 215.268 217.902 226.567 C 217.902 238.658,217.837 239.076,215.951 239.076 C 215.225 239.076,215.208 239.955,215.112 284.023 L 215.014 328.970 185.082 329.069 L 155.149 329.167 155.149 236.189 L 155.149 143.210 183.542 143.308 L 211.935 143.407 212.038 152.764 C 212.131 161.224,212.198 162.063,212.739 161.522 C 213.068 161.193,213.722 160.924,214.192 160.924 C 214.825 160.924,215.144 160.598,215.416 159.673 C 215.719 158.642,216.001 158.401,217.014 158.303 C 218.127 158.195,218.254 158.049,218.361 156.763 C 218.473 155.423,218.562 155.335,219.923 155.222 C 221.284 155.110,221.367 155.028,221.367 153.796 C 221.367 152.616,221.493 152.465,222.668 152.245 C 223.711 152.049,224.039 151.759,224.317 150.784 C 224.591 149.823,224.952 149.495,226.031 149.226 C 227.011 148.982,227.511 148.582,227.802 147.813 C 228.225 146.693,230.038 145.916,232.243 145.912 C 233.031 145.910,233.301 145.720,233.301 145.167 C 233.301 143.768,234.345 143.215,236.986 143.215 C 239.350 143.215,239.461 143.173,239.461 142.280 C 239.461 140.503,240.325 140.135,244.493 140.135 C 248.284 140.135,248.316 140.127,248.316 139.200 C 248.316 136.959,247.575 137.026,270.888 137.142 C 289.364 137.233,292.281 137.325,292.597 137.825 M121.655 236.189 L 121.655 329.163 91.819 329.163 L 61.983 329.163 61.983 236.189 L 61.983 143.215 91.819 143.215 L 121.655 143.215 121.655 236.189 " stroke="none" fill="#0474b4" fill-rule="evenodd"></path><path id="path4" d="M83.927 50.275 C 83.397 50.370,82.430 50.534,81.776 50.639 C 81.123 50.744,80.028 51.330,79.343 51.941 C 78.658 52.552,77.461 53.171,76.681 53.315 C 75.187 53.592,72.762 54.899,72.762 55.428 C 72.762 55.599,72.100 56.004,71.292 56.328 C 70.483 56.651,69.348 57.536,68.770 58.295 C 68.191 59.053,67.461 59.673,67.147 59.673 C 66.833 59.673,66.227 60.265,65.800 60.989 C 65.373 61.712,64.643 62.558,64.177 62.869 C 63.711 63.179,62.984 64.094,62.560 64.902 C 62.137 65.710,61.309 66.899,60.721 67.545 C 60.129 68.195,59.546 69.381,59.415 70.199 C 59.285 71.013,58.795 72.139,58.328 72.702 C 56.798 74.542,56.489 75.555,56.380 79.091 C 56.277 82.443,56.330 82.293,56.811 77.879 C 56.940 76.691,57.409 75.314,57.962 74.500 C 58.475 73.744,59.189 72.223,59.550 71.120 C 59.911 70.016,60.576 68.744,61.027 68.293 C 61.479 67.842,62.058 66.966,62.314 66.347 C 62.736 65.327,63.678 64.155,66.647 60.952 C 68.700 58.737,70.972 56.882,72.323 56.318 C 73.087 55.999,73.937 55.416,74.213 55.023 C 74.488 54.629,75.920 53.948,77.395 53.509 C 78.870 53.070,80.077 52.536,80.077 52.322 C 80.077 49.968,100.653 49.794,103.454 52.124 C 104.042 52.614,105.440 53.316,106.559 53.685 C 107.777 54.085,108.839 54.727,109.202 55.281 C 109.536 55.791,110.142 56.208,110.549 56.208 C 111.847 56.208,108.851 53.941,106.714 53.306 C 105.659 52.993,104.694 52.471,104.569 52.145 C 103.979 50.608,89.406 49.287,83.927 50.275 M112.451 56.852 C 113.375 57.503,114.703 58.676,116.776 60.670 C 118.203 62.043,120.560 65.190,121.219 66.603 C 121.565 67.344,122.218 68.250,122.669 68.616 C 123.152 69.008,123.771 70.319,124.170 71.793 C 124.544 73.173,124.993 74.302,125.168 74.302 C 125.863 74.302,126.780 76.931,127.044 79.679 L 127.323 82.579 127.376 80.074 C 127.442 77.027,126.973 75.257,125.752 73.946 C 125.244 73.401,124.622 72.063,124.368 70.974 C 124.107 69.849,123.514 68.622,122.997 68.137 C 122.496 67.666,121.634 66.358,121.082 65.229 C 120.530 64.101,119.772 63.080,119.396 62.961 C 119.021 62.842,118.424 62.135,118.068 61.389 C 117.713 60.644,117.118 59.932,116.747 59.807 C 116.377 59.683,115.467 58.923,114.726 58.119 C 113.985 57.315,112.945 56.543,112.416 56.403 L 111.453 56.149 112.451 56.852 M56.370 92.784 C 56.478 96.506,57.160 98.740,58.325 99.187 C 58.620 99.300,59.051 100.305,59.283 101.420 C 59.565 102.778,60.064 103.792,60.797 104.495 C 61.399 105.071,62.196 106.219,62.569 107.046 C 62.942 107.872,63.575 108.653,63.977 108.780 C 64.378 108.908,65.135 109.691,65.659 110.521 C 66.183 111.352,66.876 112.031,67.198 112.031 C 67.520 112.031,68.135 112.627,68.566 113.357 C 69.052 114.180,69.837 114.844,70.639 115.109 C 71.348 115.343,72.190 115.932,72.508 116.419 C 73.119 117.350,74.209 117.885,76.901 118.572 C 77.801 118.802,78.537 119.152,78.537 119.350 C 78.537 120.264,81.136 121.005,84.695 121.107 L 88.354 121.212 85.467 120.914 C 81.799 120.536,80.462 120.183,79.500 119.339 C 79.076 118.967,77.764 118.387,76.584 118.051 C 75.403 117.714,74.104 117.070,73.697 116.620 C 73.290 116.170,72.436 115.541,71.801 115.222 C 69.740 114.189,63.760 108.202,62.669 106.081 C 62.239 105.244,61.493 104.249,61.011 103.870 C 60.494 103.463,59.947 102.396,59.675 101.258 C 59.421 100.201,58.909 98.943,58.538 98.465 C 57.214 96.758,56.845 95.629,56.557 92.398 L 56.264 89.124 56.370 92.784 M127.045 91.725 C 127.045 94.636,126.603 96.306,125.345 98.138 C 124.824 98.897,124.192 100.346,123.940 101.357 C 123.683 102.394,123.106 103.493,122.618 103.878 C 122.141 104.252,121.375 105.297,120.915 106.198 C 120.455 107.099,119.050 108.851,117.791 110.089 C 116.323 111.535,115.788 112.267,116.298 112.134 C 116.735 112.020,117.515 111.257,118.031 110.439 C 118.548 109.620,119.225 108.951,119.536 108.951 C 119.848 108.951,120.521 108.128,121.033 107.122 C 121.545 106.116,122.407 104.881,122.948 104.376 C 123.578 103.788,124.084 102.727,124.354 101.426 C 124.586 100.308,125.018 99.300,125.313 99.187 C 126.639 98.678,128.514 89.317,127.290 89.317 C 127.155 89.317,127.045 90.401,127.045 91.725 M114.254 113.271 C 113.937 113.755,112.830 114.573,111.795 115.089 C 110.760 115.606,109.615 116.406,109.250 116.868 C 108.885 117.331,107.759 117.916,106.747 118.170 C 105.736 118.423,104.562 118.942,104.139 119.322 C 103.182 120.182,101.862 120.534,98.171 120.914 L 95.284 121.212 98.954 121.107 C 102.615 121.002,103.933 120.626,105.178 119.330 C 105.537 118.956,106.507 118.536,107.332 118.396 C 108.188 118.252,109.367 117.653,110.080 117.002 C 110.768 116.375,112.001 115.519,112.822 115.100 C 113.643 114.681,114.508 113.977,114.744 113.537 C 115.344 112.415,114.953 112.204,114.254 113.271 M253.970 137.842 C 252.951 138.013,251.672 138.469,251.128 138.855 C 250.584 139.241,249.772 139.771,249.323 140.033 C 247.662 141.002,249.604 140.479,252.054 139.297 C 254.427 138.153,254.948 138.058,260.211 137.819 L 265.833 137.564 260.828 137.547 C 258.075 137.538,254.989 137.670,253.970 137.842 M278.345 137.845 C 284.636 138.207,286.851 138.559,288.603 139.478 C 289.268 139.827,290.481 140.182,291.297 140.267 C 292.114 140.352,292.435 140.341,292.012 140.243 C 291.588 140.145,290.955 139.808,290.604 139.495 C 289.198 138.239,286.340 137.763,279.500 137.643 L 272.762 137.524 278.345 137.845 M243.854 140.934 C 243.199 141.124,242.210 141.701,241.654 142.216 C 241.099 142.731,239.690 143.429,238.525 143.768 C 237.359 144.107,235.946 144.810,235.384 145.331 C 234.822 145.851,233.770 146.388,233.047 146.524 C 232.193 146.684,231.394 147.212,230.773 148.027 C 230.238 148.728,229.330 149.380,228.716 149.502 C 228.111 149.623,226.821 150.410,225.849 151.251 C 224.877 152.093,223.774 152.880,223.398 153.002 C 223.022 153.123,222.419 153.743,222.058 154.378 C 221.698 155.014,220.980 155.727,220.465 155.962 C 219.949 156.197,219.334 156.811,219.099 157.327 C 218.864 157.843,218.156 158.560,217.525 158.921 C 216.894 159.281,216.189 160.030,215.959 160.585 C 215.728 161.140,215.117 161.787,214.601 162.022 C 214.084 162.257,213.374 163.052,213.023 163.788 C 211.910 166.122,211.742 164.959,211.742 154.934 C 211.742 144.390,211.578 143.550,209.528 143.624 C 209.053 143.641,209.134 143.760,209.806 144.028 C 211.315 144.630,211.345 144.836,211.356 154.764 C 211.370 166.296,211.543 167.290,213.084 164.678 C 213.897 163.297,224.604 152.454,225.153 152.454 C 225.342 152.454,226.084 151.937,226.801 151.305 C 227.517 150.672,228.637 149.976,229.289 149.757 C 229.940 149.538,230.835 148.869,231.278 148.271 C 231.793 147.573,232.731 147.001,233.888 146.677 C 234.882 146.399,236.065 145.798,236.519 145.341 C 236.973 144.884,238.383 144.197,239.654 143.814 C 240.924 143.431,242.441 142.716,243.024 142.227 C 243.636 141.713,244.857 141.232,245.911 141.090 C 248.502 140.741,248.778 140.580,246.776 140.585 C 245.823 140.587,244.508 140.745,243.854 140.934 M294.129 140.770 C 296.212 141.083,298.208 141.781,298.941 142.453 C 299.365 142.840,300.231 143.258,300.866 143.381 C 301.501 143.504,301.761 143.495,301.444 143.361 C 301.126 143.228,300.433 142.723,299.904 142.240 C 298.791 141.224,296.453 140.502,294.514 140.574 C 293.541 140.611,293.434 140.665,294.129 140.770 M62.965 144.347 C 62.593 144.759,62.379 145.322,62.490 145.599 C 62.623 145.931,62.702 145.877,62.722 145.441 C 62.739 145.077,63.229 144.521,63.811 144.205 C 64.461 143.852,64.633 143.624,64.256 143.615 C 63.918 143.607,63.337 143.936,62.965 144.347 M119.643 144.000 C 120.125 144.193,120.677 144.745,120.870 145.227 C 121.096 145.790,121.230 145.883,121.246 145.488 C 121.275 144.748,120.076 143.590,119.315 143.624 C 119.014 143.637,119.162 143.807,119.643 144.000 M156.132 144.347 C 155.760 144.759,155.546 145.322,155.657 145.599 C 155.790 145.931,155.869 145.877,155.889 145.441 C 155.905 145.077,156.396 144.521,156.978 144.205 C 157.628 143.852,157.799 143.624,157.423 143.615 C 157.085 143.607,156.504 143.936,156.132 144.347 M303.130 143.998 C 303.740 144.180,304.606 144.671,305.055 145.088 C 305.504 145.504,306.850 146.276,308.047 146.802 C 309.290 147.348,310.323 148.075,310.457 148.497 C 310.586 148.903,311.299 149.525,312.042 149.880 C 312.784 150.234,313.590 150.958,313.832 151.489 C 314.074 152.020,314.578 152.454,314.952 152.454 C 315.326 152.454,315.988 152.931,316.424 153.513 C 316.859 154.095,317.376 154.717,317.572 154.895 C 317.769 155.072,318.392 155.641,318.957 156.159 C 319.802 156.933,319.961 156.979,319.853 156.417 C 319.780 156.040,319.237 155.501,318.646 155.217 C 318.054 154.934,317.414 154.291,317.223 153.789 C 317.032 153.287,316.375 152.617,315.762 152.300 C 315.149 151.983,314.360 151.284,314.008 150.748 C 313.656 150.211,312.932 149.662,312.397 149.528 C 311.863 149.394,311.176 148.799,310.869 148.206 C 310.515 147.522,309.783 146.960,308.861 146.665 C 308.064 146.410,306.978 145.811,306.449 145.333 C 305.141 144.152,303.978 143.593,302.913 143.633 C 302.125 143.662,302.150 143.704,303.130 143.998 M319.929 157.739 C 319.926 157.999,320.349 158.491,320.870 158.832 C 321.392 159.174,321.929 159.803,322.065 160.231 C 322.201 160.659,322.918 161.680,323.658 162.500 C 324.399 163.319,325.251 164.729,325.552 165.633 C 326.076 167.208,326.092 167.221,325.932 165.929 C 325.666 163.780,325.013 162.477,324.010 162.096 C 323.433 161.876,322.906 161.219,322.625 160.367 C 322.375 159.612,321.795 158.795,321.336 158.553 C 320.876 158.312,320.373 157.923,320.218 157.690 C 320.021 157.395,319.933 157.410,319.929 157.739 M326.083 167.778 C 326.083 167.957,326.503 168.500,327.017 168.982 C 327.699 169.623,328.073 170.579,328.400 172.514 C 328.881 175.369,329.389 176.245,328.990 173.532 C 328.513 170.289,327.919 168.654,326.999 168.051 C 326.495 167.721,326.083 167.598,326.083 167.778 M329.163 175.778 C 329.163 175.911,329.583 176.519,330.097 177.130 C 330.719 177.869,331.105 178.918,331.251 180.266 C 331.683 184.255,331.800 184.550,331.675 181.328 C 331.605 179.528,331.430 177.763,331.285 177.405 C 331.021 176.751,329.163 175.326,329.163 175.778 M331.906 185.756 C 331.883 186.179,332.269 187.392,332.762 188.451 C 333.706 190.479,334.485 195.932,334.713 202.117 C 334.779 203.917,334.771 202.185,334.695 198.268 C 334.546 190.560,334.261 188.633,333.083 187.355 C 332.663 186.899,332.236 186.179,332.133 185.756 L 331.947 184.986 331.906 185.756 M255.342 190.839 C 255.712 190.931,256.015 191.161,256.015 191.351 C 256.015 191.947,257.647 192.624,260.635 193.268 C 263.050 193.788,263.602 194.053,264.007 194.888 C 264.274 195.436,265.011 196.066,265.646 196.287 C 266.298 196.514,266.959 197.108,267.166 197.652 C 267.367 198.182,268.039 198.878,268.658 199.198 C 269.454 199.610,269.857 200.167,270.032 201.101 C 270.168 201.827,270.795 203.070,271.425 203.862 C 272.166 204.795,272.590 205.794,272.627 206.694 C 272.678 207.922,272.704 207.956,272.850 206.985 C 273.034 205.747,272.392 203.850,271.397 202.695 C 271.032 202.271,270.605 201.492,270.448 200.962 C 269.782 198.716,263.793 193.631,260.926 192.879 C 259.469 192.496,257.973 191.908,257.602 191.573 C 257.231 191.237,256.419 190.897,255.798 190.817 C 255.176 190.737,254.971 190.747,255.342 190.839 M241.525 191.569 C 241.073 191.885,239.170 192.426,237.297 192.770 C 235.424 193.114,234.094 193.463,234.343 193.546 C 235.741 194.012,243.311 192.136,243.311 191.324 C 243.311 190.789,242.478 190.903,241.525 191.569 M232.146 194.803 C 231.694 195.438,231.056 195.958,230.728 195.958 C 229.788 195.958,224.082 201.738,223.079 203.706 C 222.580 204.685,221.925 205.581,221.624 205.697 C 221.322 205.813,220.711 207.106,220.266 208.571 C 219.821 210.035,219.107 211.679,218.679 212.222 C 217.809 213.328,217.719 213.667,218.292 213.667 C 218.971 213.667,220.098 211.396,220.605 209.010 C 220.972 207.278,221.347 206.529,222.125 205.976 C 222.702 205.565,223.360 204.563,223.618 203.702 C 223.898 202.765,224.378 202.069,224.844 201.921 C 225.265 201.787,225.876 201.163,226.202 200.534 C 226.527 199.904,227.221 199.227,227.744 199.028 C 228.267 198.829,228.863 198.226,229.067 197.689 C 229.316 197.034,229.831 196.632,230.626 196.473 C 231.312 196.336,232.083 195.811,232.452 195.231 C 232.804 194.678,233.268 194.098,233.485 193.942 C 233.740 193.759,233.719 193.657,233.424 193.654 C 233.173 193.650,232.599 194.167,232.146 194.803 M273.002 210.045 C 272.976 211.123,273.213 212.855,273.528 213.895 C 273.843 214.934,274.103 217.175,274.106 218.875 C 274.108 220.873,274.298 222.234,274.641 222.725 C 274.933 223.142,275.253 223.831,275.352 224.254 C 275.452 224.678,275.461 222.945,275.373 220.404 C 275.251 216.865,275.038 215.410,274.460 214.183 C 274.045 213.303,273.558 211.570,273.377 210.334 L 273.049 208.085 273.002 210.045 M217.015 219.092 C 216.847 221.123,216.429 223.722,216.087 224.867 C 214.993 228.529,214.777 236.402,214.508 282.514 C 214.251 326.625,214.227 327.698,213.497 328.231 C 213.086 328.532,212.935 328.778,213.161 328.778 C 214.636 328.778,214.622 329.166,214.822 282.506 C 214.991 243.062,215.086 237.464,215.592 237.152 C 216.040 236.876,216.221 235.610,216.400 231.488 C 216.527 228.568,216.841 224.417,217.099 222.263 C 217.356 220.109,217.512 217.683,217.444 216.873 C 217.373 216.016,217.193 216.944,217.015 219.092 M275.743 276.045 C 275.644 330.138,275.604 328.778,277.285 328.778 C 277.525 328.778,277.385 328.532,276.974 328.231 C 276.243 327.696,276.223 326.604,276.032 276.354 L 275.837 225.024 275.743 276.045 M62.398 326.782 C 62.353 327.532,63.101 328.778,63.596 328.778 C 63.855 328.778,63.792 328.508,63.440 328.104 C 63.117 327.733,62.758 327.170,62.641 326.853 C 62.494 326.454,62.419 326.432,62.398 326.782 M120.916 326.822 C 120.899 327.123,120.599 327.686,120.248 328.074 C 119.889 328.471,119.799 328.778,120.042 328.778 C 120.602 328.778,121.375 327.330,121.133 326.735 C 121.010 326.431,120.936 326.461,120.916 326.822 M155.559 326.782 C 155.515 327.676,156.311 328.778,156.991 328.766 C 157.592 328.755,157.589 328.718,156.953 328.348 C 156.569 328.125,156.104 327.567,155.919 327.109 C 155.734 326.650,155.572 326.503,155.559 326.782 M334.583 326.927 C 334.566 327.286,334.167 327.849,333.697 328.178 C 333.010 328.659,332.970 328.778,333.491 328.778 C 334.224 328.778,335.085 327.435,334.800 326.735 C 334.696 326.478,334.600 326.562,334.583 326.927 " stroke="none" fill="#3494c4" fill-rule="evenodd"></path><path id="path5" d="M88.661 49.950 C 90.311 50.022,92.910 50.022,94.435 49.949 C 95.961 49.876,94.610 49.817,91.434 49.817 C 88.258 49.818,87.010 49.877,88.661 49.950 M79.202 50.547 C 78.020 51.061,76.679 53.128,77.528 53.128 C 77.795 53.128,78.593 52.611,79.301 51.979 C 80.009 51.347,81.123 50.744,81.776 50.639 C 82.430 50.534,83.397 50.382,83.927 50.301 C 84.456 50.219,83.850 50.137,82.579 50.118 C 81.309 50.099,79.789 50.292,79.202 50.547 M100.360 50.425 C 102.652 50.686,104.716 51.599,104.716 52.352 C 104.716 52.551,105.597 52.975,106.674 53.295 C 107.751 53.614,109.210 54.384,109.918 55.005 C 110.625 55.626,111.738 56.252,112.392 56.395 C 113.102 56.551,113.995 57.200,114.612 58.010 C 115.180 58.754,116.045 59.516,116.535 59.702 C 117.024 59.888,117.715 60.649,118.070 61.393 C 118.424 62.136,119.021 62.842,119.396 62.961 C 119.772 63.080,120.530 64.101,121.082 65.229 C 121.634 66.358,122.496 67.666,122.997 68.137 C 123.509 68.618,124.113 69.860,124.377 70.974 C 124.635 72.063,125.329 73.510,125.919 74.190 C 128.504 77.163,127.995 98.158,125.313 99.187 C 125.018 99.300,124.586 100.308,124.354 101.426 C 124.084 102.727,123.578 103.788,122.948 104.376 C 122.407 104.881,121.545 106.116,121.033 107.122 C 120.521 108.128,119.848 108.951,119.536 108.951 C 119.225 108.951,118.546 109.622,118.028 110.443 C 117.511 111.263,116.672 112.039,116.165 112.166 C 115.658 112.293,115.047 112.828,114.807 113.353 C 114.568 113.879,113.687 114.659,112.851 115.085 C 112.014 115.512,110.765 116.377,110.074 117.008 C 109.384 117.638,108.459 118.225,108.019 118.312 C 107.419 118.431,107.487 118.484,108.290 118.523 C 109.992 118.606,112.031 117.590,112.031 116.658 C 112.031 115.842,112.193 115.735,114.042 115.330 C 114.820 115.160,115.174 114.778,115.412 113.855 C 115.648 112.941,115.985 112.573,116.673 112.475 C 117.958 112.293,118.576 111.714,118.576 110.692 C 118.576 110.052,118.895 109.741,119.827 109.475 C 120.824 109.190,121.147 108.841,121.419 107.752 C 121.663 106.771,122.062 106.271,122.832 105.981 C 123.954 105.557,124.729 103.744,124.733 101.530 C 124.735 100.753,124.991 100.365,125.674 100.105 C 127.539 99.396,127.623 98.807,127.623 86.429 C 127.623 73.972,127.442 72.655,125.638 71.969 C 124.963 71.713,124.735 71.330,124.735 70.450 C 124.735 68.754,123.801 66.765,122.649 66.010 C 122.102 65.652,121.517 64.830,121.350 64.183 C 121.053 63.038,120.630 62.642,119.249 62.215 C 118.852 62.092,118.576 61.627,118.576 61.079 C 118.576 60.014,118.023 59.454,116.625 59.103 C 115.950 58.933,115.528 58.471,115.280 57.628 C 114.984 56.625,114.695 56.379,113.697 56.282 C 112.918 56.206,112.255 55.828,111.868 55.237 C 111.090 54.050,109.918 53.417,107.999 53.149 C 106.873 52.992,106.345 52.682,105.993 51.973 C 105.318 50.612,103.784 50.077,100.674 50.118 L 97.979 50.153 100.360 50.425 M73.081 53.565 C 72.480 53.786,71.892 54.402,71.667 55.048 C 71.362 55.923,71.013 56.180,70.000 56.278 C 68.937 56.380,68.659 56.608,68.358 57.628 C 68.110 58.471,67.688 58.933,67.013 59.103 C 65.642 59.447,65.063 60.010,65.063 60.998 C 65.063 61.581,64.676 62.015,63.819 62.394 C 62.983 62.765,62.467 63.331,62.244 64.125 C 62.028 64.894,61.542 65.445,60.852 65.705 C 59.772 66.113,58.903 68.286,58.903 70.581 C 58.903 71.263,58.639 71.590,57.951 71.763 C 56.101 72.227,56.015 72.847,56.015 85.852 C 56.015 98.848,56.090 99.393,57.964 100.105 C 58.647 100.365,58.903 100.753,58.905 101.530 C 58.909 103.744,59.684 105.557,60.806 105.981 C 61.576 106.271,61.975 106.771,62.219 107.752 C 62.491 108.841,62.814 109.190,63.811 109.475 C 64.743 109.741,65.063 110.052,65.063 110.692 C 65.063 111.714,65.680 112.293,66.965 112.475 C 67.653 112.573,67.990 112.941,68.225 113.851 C 68.473 114.816,68.822 115.165,69.787 115.413 C 70.576 115.616,71.217 116.119,71.542 116.790 C 72.117 117.977,73.370 118.584,75.193 118.559 L 76.420 118.542 74.880 117.996 C 74.033 117.696,72.991 117.016,72.565 116.485 C 72.138 115.954,71.238 115.327,70.563 115.092 C 69.848 114.842,69.014 114.116,68.560 113.348 C 68.133 112.623,67.520 112.031,67.198 112.031 C 66.876 112.031,66.183 111.352,65.659 110.521 C 65.135 109.691,64.378 108.908,63.977 108.780 C 63.575 108.653,62.942 107.872,62.569 107.046 C 62.196 106.219,61.399 105.071,60.797 104.495 C 60.064 103.792,59.565 102.778,59.283 101.420 C 59.051 100.305,58.620 99.300,58.325 99.187 C 56.646 98.543,56.400 96.916,56.400 86.429 C 56.400 75.474,56.451 75.072,58.073 73.030 C 58.685 72.260,59.291 70.975,59.419 70.175 C 59.547 69.375,60.133 68.191,60.721 67.545 C 61.309 66.899,62.137 65.710,62.560 64.902 C 62.984 64.094,63.711 63.179,64.177 62.869 C 64.643 62.558,65.373 61.712,65.800 60.989 C 66.227 60.265,66.833 59.673,67.147 59.673 C 67.461 59.673,68.188 59.057,68.762 58.305 C 69.335 57.553,70.350 56.709,71.016 56.431 C 71.683 56.152,72.722 55.466,73.327 54.906 C 73.931 54.346,74.961 53.733,75.615 53.543 L 76.805 53.197 75.457 53.193 C 74.716 53.191,73.647 53.358,73.081 53.565 M76.995 119.057 C 77.222 119.321,77.624 119.851,77.887 120.233 C 78.692 121.403,81.018 121.637,91.819 121.637 C 102.620 121.637,104.946 121.403,105.751 120.233 C 106.014 119.851,106.416 119.321,106.643 119.057 C 107.431 118.140,106.026 118.536,104.948 119.535 C 103.381 120.988,102.612 121.078,91.819 121.078 C 81.026 121.078,80.257 120.988,78.690 119.535 C 77.612 118.536,76.207 118.140,76.995 119.057 M251.910 137.413 C 250.132 137.704,249.233 138.294,248.882 139.400 C 248.691 140.003,248.278 140.135,246.576 140.135 C 242.920 140.135,240.577 140.832,240.114 142.057 C 239.775 142.957,239.434 143.156,237.932 143.334 C 235.612 143.609,234.320 144.221,233.863 145.261 C 233.619 145.817,233.088 146.142,232.295 146.219 C 231.570 146.289,230.507 146.879,229.601 147.715 C 228.777 148.474,227.532 149.255,226.833 149.451 C 226.044 149.671,225.279 150.273,224.818 151.034 C 224.362 151.787,223.667 152.337,223.023 152.456 C 222.250 152.598,221.881 152.969,221.626 153.856 C 221.372 154.742,220.962 155.154,220.083 155.406 C 219.201 155.659,218.795 156.069,218.537 156.969 C 218.278 157.872,217.900 158.253,217.085 158.432 C 216.263 158.612,215.904 158.979,215.672 159.876 C 215.433 160.797,215.070 161.153,214.116 161.400 C 213.136 161.654,212.814 161.984,212.596 162.959 C 212.443 163.645,212.229 159.990,212.117 154.764 L 211.914 145.332 211.828 155.030 C 211.740 164.938,211.904 166.136,213.023 163.788 C 213.374 163.052,214.084 162.257,214.601 162.022 C 215.117 161.787,215.728 161.140,215.959 160.585 C 216.189 160.030,216.894 159.281,217.525 158.921 C 218.156 158.560,218.854 157.865,219.077 157.376 C 219.300 156.888,219.992 156.195,220.617 155.836 C 221.241 155.478,221.951 154.747,222.195 154.212 C 222.439 153.677,222.963 153.136,223.360 153.010 C 223.757 152.884,224.877 152.093,225.849 151.251 C 226.821 150.410,228.111 149.623,228.716 149.502 C 229.330 149.380,230.238 148.728,230.773 148.027 C 231.394 147.212,232.193 146.684,233.047 146.524 C 233.770 146.388,234.828 145.845,235.398 145.318 C 235.967 144.790,237.461 144.073,238.717 143.723 C 239.973 143.374,241.001 142.958,241.001 142.798 C 241.001 142.009,243.861 140.849,246.547 140.548 C 248.803 140.295,249.710 140.002,250.626 139.231 C 252.419 137.722,253.511 137.632,270.067 137.632 C 286.322 137.632,288.416 137.817,290.467 139.430 C 292.010 140.644,292.959 140.222,291.777 138.848 C 290.969 137.910,290.428 137.707,287.959 137.422 C 284.606 137.034,254.276 137.027,251.910 137.413 M293.936 140.353 C 297.360 140.837,299.095 141.391,299.913 142.262 C 300.399 142.780,301.419 143.307,302.179 143.435 C 304.458 143.817,304.905 144.005,306.185 145.118 C 306.859 145.705,308.064 146.397,308.861 146.656 C 309.777 146.954,310.517 147.526,310.869 148.206 C 311.176 148.799,311.863 149.394,312.397 149.528 C 312.932 149.662,313.656 150.211,314.008 150.748 C 314.360 151.284,315.149 151.983,315.762 152.300 C 316.375 152.617,317.032 153.287,317.223 153.789 C 317.414 154.291,318.046 154.932,318.628 155.214 C 319.282 155.531,319.803 156.180,319.991 156.913 C 320.170 157.606,320.684 158.277,321.226 158.524 C 321.765 158.769,322.346 159.522,322.607 160.313 C 322.874 161.123,323.465 161.877,324.059 162.167 C 325.106 162.679,326.003 164.582,326.053 166.401 C 326.072 167.060,326.424 167.674,326.999 168.051 C 327.839 168.602,328.409 170.014,328.939 172.859 C 329.038 173.388,329.058 172.610,328.985 171.131 C 328.864 168.697,328.742 168.348,327.705 167.473 C 326.885 166.782,326.478 166.012,326.276 164.774 C 325.894 162.430,325.531 161.845,324.166 161.369 C 323.250 161.050,323.000 160.734,322.991 159.885 C 322.983 159.169,322.519 158.353,321.611 157.459 C 320.859 156.718,319.908 155.462,319.498 154.668 C 319.088 153.874,318.585 153.224,318.380 153.224 C 318.176 153.224,317.155 152.375,316.111 151.337 C 315.012 150.243,313.701 149.337,312.993 149.182 C 312.109 148.988,311.664 148.604,311.382 147.794 C 311.123 147.051,310.649 146.600,309.971 146.453 C 308.168 146.060,307.919 145.919,307.727 145.185 C 307.488 144.272,306.038 143.606,303.685 143.327 C 302.339 143.168,301.785 142.915,301.616 142.382 C 301.179 141.003,299.695 140.441,296.153 140.312 C 294.299 140.245,293.301 140.263,293.936 140.353 M62.588 143.820 C 61.539 144.869,61.677 328.202,62.727 328.764 C 63.759 329.316,119.880 329.316,120.911 328.764 C 121.961 328.202,122.100 144.869,121.050 143.820 C 120.129 142.898,63.509 142.898,62.588 143.820 M155.754 143.820 C 154.705 144.869,154.843 328.202,155.894 328.764 C 156.699 329.195,213.104 329.354,214.213 328.929 C 214.548 328.800,214.822 328.329,214.822 327.881 C 214.822 327.069,214.820 327.069,214.223 327.922 L 213.623 328.778 184.977 328.778 C 157.050 328.778,156.321 328.759,155.933 328.033 C 155.106 326.488,155.408 144.988,156.238 144.237 C 157.443 143.147,209.876 143.274,210.972 144.370 C 211.466 144.863,211.742 144.960,211.742 144.639 C 211.742 143.229,211.463 143.215,183.589 143.215 C 159.348 143.215,156.293 143.281,155.754 143.820 M120.566 144.237 C 121.397 144.988,121.699 326.488,120.872 328.033 C 120.247 329.201,63.391 329.201,62.766 328.033 C 61.998 326.597,62.233 145.156,63.005 144.304 C 63.944 143.266,119.423 143.202,120.566 144.237 M329.163 174.775 C 329.163 175.193,329.589 175.815,330.110 176.156 C 331.320 176.949,331.540 177.672,331.863 181.906 L 332.127 185.371 332.182 181.906 C 332.213 180.000,332.055 177.780,331.830 176.972 C 331.197 174.690,329.163 173.015,329.163 174.775 M332.243 186.019 C 332.243 186.270,332.603 186.860,333.045 187.330 C 333.486 187.799,334.040 188.850,334.276 189.664 C 334.874 191.724,335.142 326.906,334.551 328.010 C 334.146 328.766,333.715 328.778,305.494 328.778 L 276.848 328.778 276.249 327.922 C 275.652 327.069,275.650 327.069,275.650 327.881 C 275.650 328.329,275.924 328.800,276.259 328.929 C 277.367 329.354,333.773 329.195,334.578 328.764 C 335.355 328.348,335.733 195.349,334.975 189.261 C 334.667 186.789,332.243 183.913,332.243 186.019 M247.273 190.854 C 248.711 190.928,250.963 190.927,252.278 190.852 C 253.592 190.778,252.416 190.717,249.663 190.717 C 246.910 190.718,245.835 190.779,247.273 190.854 M243.311 191.324 C 243.311 191.986,241.917 192.468,238.247 193.074 C 233.112 193.922,233.171 193.901,232.486 195.119 C 232.084 195.836,231.437 196.311,230.651 196.468 C 229.831 196.632,229.318 197.027,229.067 197.689 C 228.863 198.226,228.267 198.829,227.744 199.028 C 227.221 199.227,226.527 199.904,226.202 200.534 C 225.876 201.163,225.265 201.787,224.844 201.921 C 224.378 202.069,223.898 202.765,223.618 203.702 C 223.362 204.557,222.702 205.565,222.135 205.968 C 221.384 206.503,220.982 207.288,220.618 208.930 C 220.035 211.557,219.305 213.105,218.416 213.602 C 217.899 213.892,217.712 214.920,217.449 218.915 C 217.270 221.640,216.952 224.595,216.743 225.483 C 216.533 226.371,216.362 229.174,216.362 231.712 C 216.362 235.593,216.255 236.433,215.688 237.000 C 215.054 237.634,215.014 240.309,215.010 282.167 L 215.006 326.660 215.108 282.829 L 215.210 238.997 216.364 237.920 C 217.493 236.864,217.517 236.765,217.518 233.051 C 217.521 220.977,217.983 214.772,218.903 214.422 C 220.068 213.979,220.529 213.029,220.833 210.445 C 221.029 208.781,221.255 208.242,221.839 208.057 C 222.664 207.795,224.040 205.126,224.053 203.761 C 224.059 203.160,224.363 202.826,225.065 202.650 C 225.709 202.488,226.257 201.950,226.592 201.148 C 226.926 200.347,227.474 199.807,228.116 199.646 C 228.775 199.481,229.307 198.940,229.674 198.061 C 230.092 197.062,230.465 196.728,231.161 196.728 C 231.673 196.728,232.328 196.511,232.617 196.246 C 235.254 193.835,235.075 193.907,239.089 193.629 C 241.979 193.429,243.139 193.189,243.707 192.675 C 244.606 191.862,244.702 190.953,243.888 190.953 C 243.571 190.953,243.311 191.120,243.311 191.324 M254.860 191.295 C 254.860 192.531,256.317 193.286,259.455 193.673 C 262.998 194.111,263.330 194.221,263.330 194.958 C 263.330 195.690,264.621 196.728,265.532 196.728 C 266.077 196.728,266.410 197.059,266.592 197.784 C 266.960 199.251,267.505 199.808,268.575 199.808 C 269.316 199.808,269.490 200.009,269.492 200.866 C 269.496 202.866,270.271 204.834,271.226 205.269 C 271.731 205.499,272.217 206.054,272.305 206.501 C 272.437 207.171,272.474 207.137,272.517 206.309 C 272.548 205.712,272.104 204.717,271.425 203.862 C 270.795 203.070,270.168 201.827,270.032 201.101 C 269.857 200.167,269.454 199.610,268.658 199.198 C 268.039 198.878,267.367 198.182,267.166 197.652 C 266.959 197.108,266.298 196.514,265.646 196.287 C 265.011 196.066,264.274 195.436,264.007 194.888 C 263.602 194.053,263.050 193.788,260.635 193.268 C 257.603 192.615,256.015 191.947,256.015 191.324 C 256.015 191.120,255.756 190.953,255.438 190.953 C 255.120 190.953,254.860 191.107,254.860 191.295 M272.821 215.014 C 273.020 222.712,273.314 224.500,274.523 225.347 C 275.244 225.852,275.264 227.064,275.364 276.262 L 275.465 326.660 275.461 275.265 C 275.457 226.940,275.417 223.812,274.783 222.917 C 274.274 222.197,274.110 221.196,274.110 218.804 C 274.110 217.065,273.918 215.154,273.683 214.558 C 273.449 213.962,273.117 212.175,272.945 210.587 C 272.737 208.674,272.696 210.168,272.821 215.014 " stroke="none" fill="#1484bc" fill-rule="evenodd"></path><path id="path6" d="M20.322 0.898 C 20.222 1.421,20.337 1.797,20.597 1.797 C 20.857 1.797,20.971 1.421,20.871 0.898 C 20.777 0.404,20.653 0.000,20.597 0.000 C 20.540 0.000,20.417 0.404,20.322 0.898 M78.730 49.997 C 77.862 50.180,77.486 50.540,77.220 51.444 C 76.885 52.580,76.736 52.660,74.607 52.853 C 72.062 53.084,71.222 53.587,71.222 54.882 C 71.222 55.557,70.967 55.810,70.164 55.932 L 69.105 56.093 70.184 56.150 C 71.059 56.197,71.338 55.991,71.663 55.058 C 72.076 53.875,73.398 53.261,76.026 53.034 C 76.794 52.968,77.324 52.629,77.634 52.004 C 78.322 50.616,79.169 50.290,82.772 50.026 L 86.044 49.785 82.964 49.770 C 81.270 49.761,79.365 49.864,78.730 49.997 M100.481 50.024 C 104.450 50.278,105.298 50.582,106.007 52.004 C 106.343 52.680,106.890 52.994,107.999 53.149 C 109.928 53.418,111.091 54.050,111.883 55.259 C 112.308 55.908,112.825 56.190,113.519 56.150 L 114.533 56.093 113.474 55.932 C 112.671 55.810,112.416 55.557,112.416 54.882 C 112.416 53.601,111.676 53.160,109.074 52.888 C 106.909 52.661,106.752 52.576,106.418 51.444 C 105.985 49.976,105.147 49.747,100.289 49.772 L 96.824 49.790 100.481 50.024 M67.920 57.154 C 67.534 58.691,67.915 59.029,68.375 57.559 C 68.607 56.816,68.653 56.208,68.477 56.208 C 68.301 56.208,68.050 56.634,67.920 57.154 M115.263 57.559 C 115.496 58.301,115.747 58.727,115.821 58.504 C 116.020 57.907,115.532 56.208,115.161 56.208 C 114.985 56.208,115.031 56.816,115.263 57.559 M65.076 59.647 C 64.857 60.057,64.698 60.793,64.723 61.284 C 64.760 62.013,64.813 61.967,65.014 61.031 C 65.159 60.354,65.652 59.687,66.219 59.400 C 67.148 58.930,67.152 58.914,66.327 58.908 C 65.858 58.905,65.295 59.238,65.076 59.647 M117.419 59.400 C 118.014 59.702,118.454 60.321,118.576 61.031 C 118.714 61.834,119.022 62.211,119.609 62.295 C 120.560 62.430,121.103 62.985,121.377 64.100 C 121.531 64.727,121.574 64.687,121.611 63.888 C 121.666 62.683,121.018 61.983,119.846 61.983 C 119.208 61.983,118.961 61.761,118.961 61.187 C 118.961 59.911,118.231 58.902,117.311 58.908 C 116.486 58.914,116.490 58.930,117.419 59.400 M62.239 62.239 C 62.098 62.380,61.994 62.944,62.007 63.491 C 62.031 64.476,62.035 64.477,62.383 63.610 C 62.576 63.128,63.128 62.576,63.610 62.383 C 64.477 62.035,64.476 62.031,63.491 62.007 C 62.944 61.994,62.380 62.098,62.239 62.239 M60.828 64.950 C 59.518 65.177,58.895 66.098,58.943 67.735 L 58.982 69.105 59.378 67.609 C 59.673 66.495,60.056 66.006,60.878 65.696 C 61.486 65.466,61.983 65.143,61.983 64.978 C 61.983 64.813,61.939 64.701,61.886 64.730 C 61.833 64.759,61.357 64.858,60.828 64.950 M122.568 65.911 C 123.176 66.363,123.920 67.268,124.223 67.920 L 124.773 69.105 124.591 67.413 C 124.394 65.582,123.919 65.071,122.425 65.081 L 121.463 65.087 122.568 65.911 M57.748 71.119 C 56.201 71.403,55.820 71.961,55.867 73.868 L 55.911 75.650 56.202 74.141 C 56.487 72.661,57.401 71.607,58.399 71.607 C 58.676 71.607,58.903 71.434,58.903 71.222 C 58.903 71.011,58.859 70.861,58.807 70.890 C 58.754 70.919,58.277 71.022,57.748 71.119 M124.928 71.607 C 125.059 71.819,125.409 71.992,125.707 71.992 C 126.324 71.992,127.050 73.189,127.458 74.880 C 127.703 75.898,127.741 75.821,127.776 74.233 C 127.801 73.066,127.602 72.220,127.210 71.827 C 126.552 71.169,124.537 70.975,124.928 71.607 M55.868 97.979 C 55.850 98.826,55.962 99.714,56.118 99.952 C 56.501 100.538,59.095 101.104,58.736 100.522 C 58.591 100.288,58.244 100.096,57.965 100.096 C 57.244 100.096,56.543 99.141,56.198 97.688 L 55.902 96.439 55.868 97.979 M127.488 97.330 C 127.400 98.689,126.719 99.708,125.621 100.125 C 124.309 100.624,124.679 100.935,126.219 100.627 C 127.556 100.360,127.995 99.452,127.710 97.544 C 127.578 96.658,127.534 96.615,127.488 97.330 M58.938 104.350 C 58.895 106.022,59.461 106.646,61.001 106.626 L 62.175 106.611 60.942 106.075 C 60.082 105.701,59.597 105.151,59.340 104.261 L 58.972 102.984 58.938 104.350 M124.260 104.251 C 124.053 105.183,123.646 105.662,122.721 106.064 L 121.463 106.611 122.667 106.626 C 124.185 106.645,124.822 105.891,124.665 104.260 L 124.542 102.984 124.260 104.251 M62.086 108.566 C 62.152 109.283,62.420 109.551,63.138 109.618 C 63.951 109.694,63.986 109.660,63.359 109.397 C 62.951 109.226,62.478 108.752,62.307 108.345 C 62.044 107.718,62.010 107.752,62.086 108.566 M121.301 108.290 C 121.284 108.667,120.881 109.132,120.404 109.324 L 119.538 109.672 120.416 109.696 C 121.332 109.722,121.871 108.947,121.530 108.097 C 121.407 107.792,121.320 107.865,121.301 108.290 M64.730 110.560 C 64.666 111.827,65.575 112.801,66.822 112.801 C 67.556 112.801,67.757 113.002,67.757 113.736 C 67.757 114.935,68.707 115.881,69.912 115.881 C 70.659 115.881,70.906 116.129,71.094 117.066 C 71.377 118.482,72.433 118.981,75.001 118.913 L 76.805 118.864 74.744 118.565 C 72.563 118.248,72.165 118.011,71.466 116.611 C 71.225 116.127,70.475 115.593,69.787 115.415 C 68.823 115.165,68.473 114.815,68.225 113.851 C 67.981 112.900,67.669 112.580,66.897 112.489 C 65.717 112.350,65.204 111.821,64.959 110.491 L 64.782 109.528 64.730 110.560 M118.576 110.636 C 118.576 111.711,117.976 112.291,116.673 112.475 C 115.985 112.573,115.648 112.941,115.412 113.855 C 115.174 114.778,114.820 115.160,114.042 115.330 C 112.198 115.734,112.031 115.842,112.031 116.625 C 112.031 117.555,110.991 118.157,108.615 118.601 C 107.012 118.901,107.082 118.917,109.314 118.753 C 111.880 118.566,112.400 118.229,112.410 116.747 C 112.415 116.047,112.632 115.881,113.543 115.881 C 114.915 115.881,115.881 114.994,115.881 113.736 C 115.881 113.002,116.082 112.801,116.816 112.801 C 117.330 112.801,118.023 112.529,118.356 112.196 C 118.906 111.645,119.227 109.721,118.768 109.721 C 118.662 109.721,118.576 110.133,118.576 110.636 M77.013 119.750 C 76.991 121.136,77.681 121.660,79.480 121.625 C 81.082 121.594,81.039 121.507,79.221 121.107 C 78.626 120.976,77.924 120.420,77.600 119.822 L 77.028 118.768 77.013 119.750 M105.980 119.828 C 105.694 120.461,105.095 120.956,104.440 121.101 C 102.593 121.509,102.552 121.594,104.188 121.625 C 105.973 121.659,106.767 121.008,106.574 119.668 C 106.452 118.815,106.437 118.819,105.980 119.828 M248.921 137.660 C 248.588 137.993,248.316 138.729,248.317 139.296 L 248.319 140.327 249.075 139.086 C 249.791 137.913,250.262 137.672,252.551 137.311 C 253.080 137.228,252.616 137.136,251.519 137.107 C 250.164 137.072,249.332 137.248,248.921 137.660 M288.338 137.419 C 290.509 137.684,290.960 137.885,291.899 139.010 C 292.948 140.267,292.974 140.275,292.968 139.350 C 292.957 137.531,292.465 137.260,289.044 137.185 L 285.852 137.115 288.338 137.419 M240.066 140.740 C 239.733 141.072,239.468 141.809,239.476 142.376 C 239.491 143.406,239.492 143.406,240.023 142.185 C 240.450 141.202,240.881 140.889,242.222 140.590 L 243.888 140.217 242.280 140.176 C 241.284 140.150,240.441 140.365,240.066 140.740 M298.171 140.324 C 298.383 140.395,299.038 140.559,299.627 140.689 C 300.265 140.830,301.004 141.427,301.454 142.166 L 302.211 143.407 302.212 142.376 C 302.214 140.871,301.270 140.130,299.395 140.165 C 298.510 140.182,297.960 140.253,298.171 140.324 M211.219 143.633 C 211.461 143.932,211.752 144.524,211.866 144.947 C 211.996 145.431,212.047 145.299,212.004 144.592 C 211.966 143.973,211.675 143.382,211.357 143.278 C 210.903 143.130,210.874 143.206,211.219 143.633 M233.906 143.820 C 233.573 144.152,233.301 144.759,233.301 145.167 C 233.301 145.720,233.031 145.910,232.243 145.912 C 230.038 145.916,228.225 146.693,227.802 147.813 C 227.511 148.582,227.011 148.982,226.031 149.226 C 224.947 149.496,224.592 149.822,224.313 150.798 C 224.088 151.587,223.669 152.086,223.145 152.189 L 222.329 152.349 223.157 152.402 C 223.723 152.438,224.233 152.035,224.765 151.133 C 225.275 150.269,225.988 149.687,226.824 149.453 C 227.528 149.256,228.777 148.474,229.601 147.715 C 230.477 146.907,231.578 146.287,232.257 146.219 C 233.248 146.119,233.637 145.783,234.331 144.430 C 234.368 144.358,235.061 144.062,235.871 143.773 L 237.344 143.248 235.927 143.232 C 235.133 143.222,234.246 143.480,233.906 143.820 M305.871 143.803 C 306.718 144.108,307.434 144.361,307.462 144.364 C 307.491 144.367,307.604 144.715,307.715 145.138 C 307.919 145.918,308.158 146.057,309.971 146.453 C 310.649 146.600,311.123 147.051,311.382 147.794 C 311.664 148.604,312.109 148.988,312.993 149.182 C 313.701 149.337,315.012 150.243,316.111 151.337 C 317.155 152.375,318.176 153.224,318.380 153.224 C 318.585 153.224,319.088 153.874,319.498 154.668 C 319.908 155.462,320.859 156.718,321.611 157.459 C 322.519 158.353,322.983 159.169,322.991 159.885 C 323.000 160.734,323.250 161.050,324.166 161.369 C 325.551 161.852,325.919 162.455,326.274 164.825 C 326.474 166.158,326.817 166.812,327.632 167.414 C 328.231 167.858,328.797 168.614,328.890 169.096 C 329.038 169.867,329.064 169.846,329.110 168.925 C 329.180 167.543,328.048 165.224,327.168 164.944 C 326.775 164.820,326.465 164.353,326.463 163.882 C 326.451 162.033,326.017 161.332,324.738 161.092 C 323.574 160.873,323.460 160.717,323.238 159.047 C 322.952 156.891,322.158 155.632,320.978 155.464 C 320.319 155.371,320.070 155.024,319.923 153.994 C 319.754 152.814,319.580 152.632,318.518 152.529 C 317.482 152.428,317.271 152.224,317.064 151.123 C 316.822 149.835,316.256 149.374,314.913 149.374 C 314.521 149.374,313.829 148.852,313.374 148.214 C 312.413 146.864,310.751 145.910,309.362 145.910 C 308.619 145.910,308.327 145.659,308.129 144.851 C 307.802 143.515,307.360 143.224,305.679 143.237 L 304.331 143.248 305.871 143.803 M218.431 155.714 C 218.312 156.025,218.303 156.501,218.413 156.773 C 218.535 157.078,218.623 157.005,218.641 156.580 C 218.658 156.203,219.062 155.738,219.538 155.546 L 220.404 155.198 219.526 155.174 C 219.043 155.160,218.550 155.403,218.431 155.714 M215.605 158.974 C 215.386 159.383,215.207 159.990,215.207 160.321 C 215.207 160.703,214.864 160.924,214.272 160.924 C 213.031 160.924,212.119 161.893,212.162 163.165 C 212.195 164.153,212.212 164.144,212.555 162.954 C 212.828 162.010,213.208 161.635,214.138 161.395 C 215.070 161.153,215.435 160.791,215.673 159.873 C 215.844 159.211,216.286 158.590,216.655 158.494 C 217.277 158.331,217.277 158.315,216.664 158.274 C 216.301 158.249,215.825 158.564,215.605 158.974 M329.163 173.603 C 329.163 173.800,329.509 174.072,329.933 174.206 C 330.735 174.461,331.369 175.394,331.877 177.071 C 332.131 177.908,332.181 177.810,332.209 176.420 C 332.233 175.265,332.016 174.557,331.473 174.013 C 330.686 173.226,329.163 172.956,329.163 173.603 M333.291 185.938 C 334.533 186.695,334.802 187.281,335.061 189.798 C 335.139 190.562,335.226 190.116,335.261 188.767 C 335.330 186.080,334.782 185.177,333.081 185.179 L 332.050 185.181 333.291 185.938 M244.466 191.471 C 244.466 192.731,242.948 193.388,239.360 193.682 L 235.804 193.973 239.735 193.870 C 242.048 193.809,243.893 193.579,244.216 193.310 C 244.844 192.789,245.297 190.953,244.797 190.953 C 244.615 190.953,244.466 191.186,244.466 191.471 M254.477 191.553 C 254.474 193.144,255.303 193.665,258.226 193.910 C 260.481 194.099,261.046 194.279,261.232 194.864 C 261.527 195.793,264.140 197.128,265.528 197.060 C 266.570 197.009,266.573 197.002,265.640 196.831 C 264.435 196.609,263.726 196.037,263.315 194.954 C 263.060 194.286,262.572 194.061,260.949 193.864 C 256.115 193.278,255.988 193.236,255.218 191.973 C 254.607 190.971,254.478 190.898,254.477 191.553 M233.547 195.389 C 232.730 196.125,231.650 196.728,231.146 196.728 C 230.467 196.728,230.089 197.070,229.674 198.061 C 229.302 198.952,228.777 199.481,228.091 199.653 C 227.421 199.821,226.929 200.303,226.670 201.044 C 226.453 201.668,225.907 202.336,225.457 202.529 C 224.689 202.858,224.698 202.874,225.602 202.787 C 226.315 202.719,226.657 202.379,226.924 201.473 C 227.209 200.507,227.549 200.202,228.546 200.015 C 229.602 199.817,229.846 199.569,230.049 198.490 C 230.273 197.294,230.419 197.186,232.098 196.963 C 234.232 196.680,235.611 195.823,235.611 194.781 C 235.611 193.743,235.260 193.847,233.547 195.389 M266.416 198.543 C 266.409 199.505,267.461 200.215,268.791 200.147 C 269.520 200.110,269.474 200.057,268.538 199.856 C 267.862 199.711,267.194 199.218,266.907 198.651 C 266.437 197.722,266.421 197.718,266.416 198.543 M269.525 203.677 C 269.484 205.289,270.046 205.973,271.396 205.952 L 272.377 205.936 271.328 205.367 C 270.717 205.035,270.128 204.277,269.919 203.554 L 269.559 202.310 269.525 203.677 M223.363 206.090 C 223.074 206.898,222.411 207.751,221.823 208.070 L 220.789 208.631 222.027 208.647 C 223.489 208.665,224.169 207.706,223.988 205.878 L 223.869 204.670 223.363 206.090 M272.264 213.667 C 272.214 222.132,272.556 225.513,273.535 226.228 C 274.483 226.922,275.265 226.900,275.265 226.179 C 275.265 225.861,275.095 225.602,274.889 225.602 C 273.579 225.602,273.148 223.534,272.726 215.224 L 272.305 206.930 272.264 213.667 M220.654 211.671 C 220.567 213.030,219.886 214.049,218.787 214.466 C 217.475 214.965,217.845 215.276,219.385 214.968 C 220.723 214.701,221.162 213.793,220.877 211.885 C 220.745 210.998,220.701 210.956,220.654 211.671 M217.517 230.644 L 217.517 236.842 216.321 237.959 C 215.263 238.947,215.216 239.076,215.909 239.076 C 217.713 239.076,217.902 238.328,217.902 231.156 C 217.902 227.466,217.815 224.447,217.709 224.447 C 217.603 224.447,217.517 227.236,217.517 230.644 M214.867 327.687 C 214.842 328.252,214.605 328.801,214.341 328.908 C 213.964 329.060,213.966 329.108,214.353 329.132 C 214.964 329.170,215.332 328.284,215.092 327.356 C 214.970 326.887,214.897 326.995,214.867 327.687 M275.396 327.786 C 275.431 328.420,275.709 328.978,276.035 329.066 C 276.421 329.170,276.465 329.116,276.170 328.903 C 275.926 328.728,275.639 328.152,275.531 327.623 C 275.362 326.794,275.344 326.816,275.396 327.786 " stroke="none" fill="#047cb4" fill-rule="evenodd"></path></g></svg>