<svg xmlns="http://www.w3.org/2000/svg" viewBox="0 0 139.51 171.53"><defs><style>.cls-1,.cls-3{fill:#ff2116;}.cls-2{fill:#f5f5f5;}.cls-3{stroke:#ff2116;stroke-miterlimit:10;stroke-width:3px;}.cls-4{fill:#2c2c2c;}</style></defs><g id="Layer_2" data-name="Layer 2"><g id="Layer_1-2" data-name="Layer 1"><g id="g899"><g id="g876"><path id="path890" class="cls-1" d="M17.71,0A17.75,17.75,0,0,0,0,17.72V153.81a17.75,17.75,0,0,0,17.71,17.72H121.78a17.75,17.75,0,0,0,17.71-17.72V41.91a14.69,14.69,0,0,0-1.14-6.47,18,18,0,0,0-3.51-5.07l0,0L109,5,109,5a20.3,20.3,0,0,0-5.47-3.5A19.93,19.93,0,0,0,95.68,0h-78Z"/><path id="rect2684" class="cls-2" d="M23.55,14.78H92.89a14.75,14.75,0,0,1,4.79.9A13.07,13.07,0,0,1,101,17.79h0L123.9,40.23a12.79,12.79,0,0,1,2,3,11.16,11.16,0,0,1,.57,3.42v99.58A10.49,10.49,0,0,1,116,156.75H23.55A10.49,10.49,0,0,1,13,146.18V25.35A10.49,10.49,0,0,1,23.55,14.78Z"/><path id="path2697" class="cls-3" d="M34.83,102.13c-4-4,.33-9.51,12.09-15.36l7.4-3.67,2.88-6.31c1.58-3.47,3.95-9.13,5.26-12.58l2.37-6.27L63.2,53.3c-2-5.7-2.74-14.28-1.46-17.36,1.73-4.18,7.4-3.75,9.64.73,1.75,3.49,1.57,9.82-.5,17.81L69.18,61l1.5,2.54A86.48,86.48,0,0,0,76,71l4,5,5-.65c15.75-2,21.15,1.44,21.15,6.45,0,6.32-12.37,6.84-22.76-.45A32.58,32.58,0,0,1,79.42,78s-6.5,1.33-9.71,2.19-4.95,1.45-9.8,3.09c0,0-1.7,2.46-2.8,4.26C53,94.2,48.18,99.74,44.74,101.75,40.89,104,36.86,104.16,34.83,102.13Zm6.29-2.25c2.25-1.39,6.8-6.78,10-11.78l1.27-2L46.54,89c-9,4.51-13.09,8.77-10.95,11.34,1.2,1.45,2.63,1.33,5.53-.46ZM99.45,83.51a3.39,3.39,0,0,0-.61-5.91c-1.93-1-3.5-1.17-8.53-1.1-3.09.21-8.06.84-8.91,1,0,0,2.74,1.88,3.95,2.58a52.88,52.88,0,0,0,8.4,3.51c2.83.86,4.46.77,5.7-.11ZM76,73.76a58.45,58.45,0,0,1-5-6.5,35.62,35.62,0,0,1-2.82-4.2s-1.38,4.42-2.5,7.07l-3.52,8.69-1,2S66.52,79,69.28,78.3c2.92-.76,8.85-1.93,8.85-1.93ZM68.44,43.44c.34-2.85.48-5.7-.44-7.13-2.54-2.78-5.61-.46-5.09,6.14a45.43,45.43,0,0,0,1.47,8.37l1.34,4.25.94-3.2a85.84,85.84,0,0,0,1.78-8.43Z"/><g id="g858"><path id="path845" class="cls-4" d="M41.64,120.67h6.5a17.54,17.54,0,0,1,5.06.6,5.88,5.88,0,0,1,3.27,2.6,8.47,8.47,0,0,1,1.33,4.82,8.78,8.78,0,0,1-1.08,4.47,6.32,6.32,0,0,1-2.9,2.69,14.2,14.2,0,0,1-5.58.83H46v10.25H41.64ZM46,124v9.16h2.15c1.93,0,3.25-.36,4-1.08a4.69,4.69,0,0,0,1.12-3.5,5.26,5.26,0,0,0-.73-2.93,3,3,0,0,0-1.62-1.38,10,10,0,0,0-2.75-.27Z"/><path id="path847" class="cls-4" d="M61.13,120.67H67a13.37,13.37,0,0,1,6.85,1.52,9.47,9.47,0,0,1,3.89,4.52,16.36,16.36,0,0,1,1.33,6.66,18.54,18.54,0,0,1-1.2,6.87,10.93,10.93,0,0,1-3.61,4.84c-1.62,1.24-3.93,1.85-6.93,1.85H61.13Zm4.35,3.48v19.3h1.8a6.1,6.1,0,0,0,5.51-2.62,12.71,12.71,0,0,0,1.71-7q0-9.66-7.22-9.66Z"/><path id="path849" class="cls-4" d="M83.27,120.67H97.85v3.48H87.62V132h8.19v3.49H87.62v11.44H83.27Z"/></g></g></g></g></g></svg>