<svg id="svg" version="1.1" xmlns="http://www.w3.org/2000/svg" xmlns:xlink="http://www.w3.org/1999/xlink" width="400" height="399.5841995841996" viewBox="0, 0, 400,399.5841995841996"><g id="svgg"><path id="path0" d="M367.741 1.392 C 365.713 1.916,362.925 2.839,361.547 3.444 C 358.201 4.910,349.930 9.147,349.663 9.531 C 349.546 9.700,348.192 10.533,346.653 11.383 C 345.115 12.234,342.641 13.707,341.155 14.657 C 339.669 15.606,338.352 16.384,338.228 16.384 C 337.933 16.384,332.328 19.999,332.068 20.357 C 331.792 20.736,328.182 23.177,327.897 23.177 C 327.616 23.177,322.405 26.753,318.132 29.877 C 316.408 31.137,313.400 33.337,311.445 34.765 C 309.491 36.193,307.409 37.632,306.818 37.962 C 306.227 38.292,304.899 39.281,303.867 40.160 C 302.835 41.039,300.711 42.712,299.147 43.878 C 293.741 47.908,292.405 48.958,290.410 50.745 C 288.577 52.387,287.860 52.950,284.935 55.043 C 283.517 56.058,279.190 59.628,278.721 60.170 C 278.501 60.424,277.333 61.397,276.124 62.333 C 273.000 64.750,271.329 66.255,271.329 66.652 C 271.329 66.841,268.229 69.678,264.440 72.958 C 236.160 97.437,203.000 129.658,183.187 151.910 C 181.885 153.373,180.617 154.587,180.371 154.608 C 180.124 154.628,179.151 155.500,178.209 156.543 C 177.266 157.587,175.483 159.520,174.246 160.839 C 173.009 162.158,171.624 163.724,171.168 164.319 C 170.713 164.915,169.281 166.614,167.987 168.094 C 166.693 169.575,164.370 172.235,162.825 174.005 C 161.280 175.775,158.623 178.931,156.920 181.019 C 155.217 183.107,153.423 185.265,152.933 185.814 C 151.266 187.686,146.827 193.203,145.859 194.605 C 145.329 195.375,143.882 197.173,142.645 198.601 C 141.407 200.030,139.964 201.828,139.439 202.597 C 138.913 203.367,138.347 204.176,138.181 204.396 C 138.014 204.615,136.951 206.054,135.818 207.592 C 134.685 209.131,133.555 210.569,133.307 210.789 C 132.828 211.212,130.743 213.946,130.070 215.034 C 129.850 215.389,128.357 217.546,126.752 219.828 C 122.857 225.362,122.610 225.707,121.651 226.923 C 120.580 228.281,115.884 235.357,115.884 235.613 C 115.884 235.882,112.643 240.646,112.052 241.245 C 111.788 241.513,110.899 242.951,110.076 244.442 C 109.254 245.933,107.437 249.067,106.038 251.406 C 104.640 253.746,103.497 255.824,103.497 256.024 C 103.497 256.224,103.034 257.008,102.468 257.765 C 101.518 259.036,97.571 266.841,95.855 270.845 C 94.954 272.947,94.349 272.716,103.297 273.684 L 110.490 274.463 113.487 271.574 C 140.805 245.242,164.277 228.483,167.835 232.771 C 170.803 236.347,153.221 260.736,129.641 285.753 L 125.616 290.023 126.340 296.560 C 126.737 300.155,127.156 303.492,127.270 303.974 C 127.483 304.879,138.415 300.154,141.982 297.614 C 142.681 297.117,144.153 296.237,145.253 295.659 C 149.457 293.451,158.949 287.777,160.788 286.373 C 161.846 285.566,163.549 284.422,164.572 283.830 C 166.828 282.527,174.298 277.476,177.694 274.958 C 179.051 273.951,181.079 272.498,182.199 271.728 C 184.671 270.031,187.731 267.776,192.085 264.444 C 193.885 263.066,196.468 261.129,197.825 260.140 C 199.182 259.151,201.396 257.392,202.744 256.230 C 204.092 255.069,205.375 253.985,205.594 253.821 C 205.814 253.657,206.713 252.991,207.592 252.341 C 208.472 251.691,210.704 249.898,212.553 248.357 C 214.402 246.816,217.189 244.504,218.747 243.221 C 223.110 239.625,225.359 237.724,227.571 235.764 C 228.687 234.775,231.103 232.707,232.939 231.169 C 237.599 227.265,241.300 223.854,245.954 219.172 C 248.152 216.962,252.375 212.912,255.340 210.174 C 279.270 188.066,310.037 156.074,329.398 133.166 C 331.117 131.133,332.843 129.298,333.234 129.088 C 333.626 128.879,335.000 127.396,336.289 125.792 C 337.578 124.189,338.945 122.563,339.327 122.180 C 339.710 121.796,341.064 120.178,342.337 118.583 C 343.610 116.989,344.755 115.594,344.880 115.485 C 345.005 115.375,345.662 114.470,346.339 113.474 C 347.016 112.478,348.099 111.130,348.745 110.477 C 350.152 109.055,353.553 104.718,356.185 100.989 C 357.236 99.500,358.405 97.972,358.783 97.593 C 360.553 95.814,374.359 76.269,377.621 70.923 C 378.558 69.388,379.450 68.042,379.605 67.932 C 379.937 67.695,383.217 62.762,383.217 62.500 C 383.217 62.400,384.770 59.760,386.668 56.634 C 392.325 47.316,392.847 46.388,395.020 41.780 C 407.417 15.484,393.417 -5.244,367.741 1.392 M366.034 13.359 C 370.704 14.206,377.223 17.134,377.223 18.384 C 377.223 18.742,359.827 36.364,359.474 36.364 C 359.354 36.364,358.309 35.758,357.151 35.019 C 348.064 29.214,334.345 26.255,327.972 28.725 C 325.614 29.639,327.093 28.412,331.968 25.408 C 334.770 23.682,339.777 20.584,343.093 18.525 C 351.824 13.103,357.536 11.817,366.034 13.359 M383.691 25.974 C 388.857 36.096,387.938 47.411,381.079 58.117 C 378.817 61.647,375.746 66.469,374.254 68.831 C 371.533 73.141,370.456 74.252,371.349 71.828 C 373.693 65.471,370.611 50.986,365.241 43.118 C 364.358 41.826,363.636 40.637,363.636 40.478 C 363.636 39.850,381.054 22.767,381.590 22.869 C 381.904 22.928,382.850 24.326,383.691 25.974 " stroke="none" fill="#d5dee5" fill-rule="evenodd"></path><path id="path1" d="M356.044 13.464 C 351.279 14.265,348.880 15.341,340.859 20.279 C 329.514 27.264,327.680 28.481,328.871 28.237 C 337.117 26.550,349.669 29.417,357.440 34.763 C 358.461 35.466,359.367 35.979,359.453 35.903 C 359.539 35.827,363.545 31.846,368.356 27.058 L 377.104 18.351 375.984 17.554 C 371.529 14.382,362.094 12.447,356.044 13.464 M375.783 28.510 C 372.904 31.401,369.082 35.319,367.292 37.217 L 364.036 40.668 365.660 43.100 C 370.537 50.403,373.449 62.341,372.109 69.530 C 371.576 72.386,371.588 72.384,373.617 69.227 C 384.819 51.790,384.832 51.767,385.641 47.850 C 387.255 40.027,386.451 32.342,383.366 26.097 C 381.552 22.427,381.978 22.292,375.783 28.510 " stroke="none" fill="#3d4545" fill-rule="evenodd"></path><path id="path2" d="M5.994 37.451 C -2.849 40.774,-0.724 65.678,9.145 74.381 C 10.159 75.275,13.057 76.994,15.584 78.200 C 18.112 79.406,22.338 81.450,24.975 82.742 C 27.612 84.033,33.277 86.657,37.562 88.571 C 41.848 90.486,45.449 92.189,45.563 92.356 C 45.678 92.523,47.207 93.278,48.960 94.033 C 50.713 94.789,53.946 96.255,56.144 97.291 C 58.342 98.328,61.039 99.533,62.138 99.969 C 63.237 100.406,65.305 101.395,66.733 102.168 C 69.384 103.602,76.050 106.711,80.719 108.691 C 82.148 109.297,86.464 111.318,90.310 113.183 C 94.156 115.047,98.651 117.159,100.300 117.876 C 101.948 118.592,106.983 120.941,111.489 123.094 C 119.645 126.993,128.225 130.927,131.269 132.163 C 132.148 132.520,132.957 132.931,133.067 133.076 C 133.267 133.341,141.751 137.463,142.096 137.463 C 142.456 137.463,151.331 141.553,156.444 144.076 C 162.684 147.154,175.651 153.047,176.185 153.047 C 176.395 153.047,176.811 153.272,177.110 153.546 C 179.444 155.692,179.320 155.760,185.644 148.851 C 208.112 124.302,239.871 93.692,266.833 70.597 C 270.755 67.238,271.525 66.326,270.430 66.340 C 268.744 66.361,227.025 61.798,226.374 61.522 C 225.934 61.335,225.125 61.229,224.575 61.285 C 224.026 61.342,223.397 61.289,223.177 61.167 C 222.439 60.760,185.221 56.850,184.696 57.125 C 184.145 57.413,165.954 55.475,162.238 54.732 C 161.029 54.491,154.016 53.606,146.653 52.766 C 139.291 51.927,133.267 51.196,133.267 51.143 C 133.267 51.012,132.944 50.972,122.478 49.799 C 96.466 46.884,90.291 46.258,87.912 46.293 C 85.241 46.333,74.014 45.173,66.933 44.125 C 64.735 43.800,58.460 43.013,52.988 42.375 C 47.516 41.738,42.643 41.116,42.158 40.995 C 40.666 40.620,39.039 40.423,23.809 38.767 C 9.116 37.169,7.133 37.023,5.994 37.451 M331.832 130.747 C 330.934 131.693,328.596 134.356,326.638 136.663 C 318.147 146.672,303.623 162.524,291.647 174.857 C 279.370 187.500,266.610 200.050,256.144 209.778 C 252.737 212.944,248.826 216.580,247.453 217.857 C 244.754 220.366,244.635 220.602,245.583 221.550 C 245.928 221.895,246.063 222.181,245.883 222.184 C 245.702 222.187,245.760 222.322,246.012 222.484 C 246.263 222.645,246.922 223.856,247.475 225.175 C 249.346 229.632,255.262 242.551,256.030 243.857 C 256.833 245.224,262.138 256.679,262.138 257.047 C 262.138 257.390,266.253 265.913,266.525 266.134 C 266.660 266.244,267.153 267.233,267.619 268.332 C 269.277 272.243,273.023 280.401,275.599 285.714 C 277.038 288.681,279.922 294.885,282.008 299.500 C 284.094 304.116,286.200 308.611,286.687 309.491 C 287.174 310.370,288.343 312.797,289.285 314.885 C 292.645 322.336,295.800 329.132,297.724 333.067 C 298.799 335.265,301.102 340.210,302.842 344.056 C 306.920 353.072,307.193 353.654,307.898 354.845 C 308.223 355.395,310.021 359.261,311.894 363.437 C 313.768 367.612,316.275 373.007,317.466 375.425 C 318.657 377.842,320.618 381.888,321.824 384.416 C 323.029 386.943,324.586 389.690,325.283 390.521 C 333.974 400.875,360.872 402.957,362.662 393.415 C 362.952 391.868,359.422 357.218,358.835 355.844 C 358.647 355.405,358.110 351.179,357.642 346.454 C 357.175 341.728,356.638 337.502,356.449 337.063 C 356.261 336.623,355.995 335.185,355.859 333.866 C 355.723 332.547,355.157 327.527,354.600 322.709 C 354.044 317.892,353.682 313.593,353.796 313.156 C 354.017 312.314,349.374 267.955,348.958 266.933 C 348.824 266.603,348.034 260.400,347.203 253.147 C 346.371 245.894,345.426 238.252,345.102 236.164 C 343.987 228.984,343.186 221.569,343.008 216.783 C 342.910 214.146,341.842 203.267,340.636 192.607 C 339.430 181.948,337.378 163.696,336.077 152.048 C 334.776 140.400,333.657 130.454,333.589 129.948 C 333.474 129.084,333.363 129.135,331.832 130.747 M9.985 264.341 C 7.925 266.533,8.519 272.310,11.174 275.903 C 12.684 277.948,13.106 278.229,17.982 280.443 C 18.971 280.891,21.973 282.261,24.652 283.486 C 27.332 284.712,29.689 285.714,29.891 285.714 C 30.093 285.714,30.868 286.120,31.613 286.615 C 32.938 287.496,35.465 288.706,44.755 292.905 C 47.283 294.048,52.070 296.314,55.393 297.941 C 58.716 299.568,61.528 300.899,61.641 300.899 C 61.755 300.899,63.531 301.687,65.589 302.649 C 67.647 303.612,70.639 304.969,72.238 305.665 C 73.837 306.361,75.789 307.368,76.576 307.902 C 78.413 309.149,78.721 308.977,82.151 304.804 C 86.570 299.428,96.561 288.391,103.411 281.319 C 106.924 277.692,109.767 274.688,109.729 274.643 C 109.691 274.598,106.789 274.272,103.281 273.918 C 99.773 273.564,96.454 273.072,95.904 272.824 C 95.355 272.577,82.587 271.047,67.532 269.424 C 52.478 267.802,39.530 266.406,38.761 266.323 C 37.992 266.239,36.913 266.080,36.364 265.970 C 35.216 265.740,12.616 263.337,11.601 263.337 C 11.231 263.337,10.504 263.789,9.985 264.341 M121.675 294.529 C 117.051 299.201,103.600 311.825,98.701 316.091 C 91.532 322.334,91.393 322.483,92.028 323.220 C 92.563 323.842,96.826 333.027,99.711 339.776 C 100.443 341.488,101.480 343.646,102.016 344.571 C 102.553 345.497,104.374 349.311,106.064 353.047 C 107.754 356.783,110.276 362.178,111.668 365.035 C 113.060 367.892,115.135 372.298,116.280 374.825 C 117.426 377.353,119.099 381.039,120.000 383.017 C 122.802 389.173,126.287 391.505,132.130 391.133 C 134.229 390.999,134.873 390.783,135.731 389.925 L 136.776 388.880 135.116 373.961 C 134.202 365.755,132.149 346.903,130.553 332.068 C 128.957 317.233,127.458 304.735,127.221 304.296 C 126.985 303.856,126.559 301.073,126.274 298.111 C 125.493 289.987,125.876 290.285,121.675 294.529 " stroke="none" fill="#44ace3" fill-rule="evenodd"></path><path id="path3" d="M359.141 13.076 C 359.855 13.165,361.024 13.165,361.738 13.076 C 362.453 12.988,361.868 12.915,360.440 12.915 C 359.011 12.915,358.427 12.988,359.141 13.076 M351.049 14.247 C 349.950 14.580,348.891 15.006,348.696 15.194 C 348.501 15.381,349.400 15.207,350.694 14.806 C 351.988 14.405,353.407 13.987,353.846 13.878 L 354.645 13.679 353.846 13.661 C 353.407 13.650,352.148 13.914,351.049 14.247 M368.631 14.327 C 369.950 14.737,371.389 15.191,371.828 15.334 C 372.268 15.477,371.908 15.247,371.029 14.823 C 370.150 14.399,368.711 13.946,367.832 13.816 C 366.590 13.632,366.767 13.746,368.631 14.327 M372.620 22.877 L 368.631 26.973 372.727 22.985 C 376.532 19.280,377.005 18.781,376.716 18.781 C 376.657 18.781,374.814 20.624,372.620 22.877 M330.969 26.020 C 329.607 26.892,329.166 27.478,330.370 26.817 C 331.286 26.313,332.723 25.202,332.468 25.194 C 332.358 25.191,331.683 25.563,330.969 26.020 M376.410 27.872 L 374.226 30.170 376.523 27.986 C 378.658 25.957,379.004 25.574,378.708 25.574 C 378.645 25.574,377.611 26.608,376.410 27.872 M366.812 28.671 L 365.435 30.170 366.933 28.793 C 368.328 27.511,368.615 27.173,368.310 27.173 C 368.243 27.173,367.569 27.847,366.812 28.671 M384.049 27.173 C 384.031 27.283,384.368 28.272,384.797 29.371 C 385.226 30.470,385.581 31.099,385.585 30.769 C 385.593 30.203,384.117 26.748,384.049 27.173 M333.574 27.862 C 334.292 27.951,335.371 27.949,335.971 27.858 C 336.572 27.767,335.984 27.694,334.665 27.696 C 333.347 27.698,332.855 27.773,333.574 27.862 M362.175 33.223 L 359.322 36.076 357.983 35.188 L 356.643 34.300 357.842 35.330 C 359.386 36.656,359.011 36.817,362.438 33.367 C 364.075 31.718,365.328 30.370,365.221 30.370 C 365.115 30.370,363.744 31.654,362.175 33.223 M180.794 33.666 L 179.620 34.965 180.919 33.791 C 181.633 33.146,182.218 32.561,182.218 32.493 C 182.218 32.184,181.888 32.456,180.794 33.666 M354.046 32.947 C 354.046 33.056,354.585 33.425,355.245 33.766 C 355.904 34.107,356.444 34.296,356.444 34.186 C 356.444 34.076,355.904 33.708,355.245 33.367 C 354.585 33.026,354.046 32.837,354.046 32.947 M366.273 37.923 L 363.536 40.681 364.663 42.219 C 365.283 43.064,365.961 43.936,366.170 44.156 C 366.779 44.795,366.034 43.516,364.926 42.019 L 363.935 40.681 366.672 37.923 C 368.178 36.406,369.319 35.165,369.209 35.165 C 369.099 35.165,367.778 36.406,366.273 37.923 M386.561 39.960 C 386.561 42.268,386.627 43.212,386.708 42.058 C 386.789 40.904,386.789 39.016,386.708 37.862 C 386.627 36.708,386.561 37.652,386.561 39.960 M175.803 38.661 L 174.426 40.160 175.924 38.783 C 176.748 38.025,177.423 37.351,177.423 37.284 C 177.423 36.979,177.084 37.267,175.803 38.661 M382.970 54.446 C 381.594 56.779,381.504 56.979,382.205 56.144 C 383.017 55.177,383.716 53.946,383.454 53.946 C 383.350 53.946,383.131 54.171,382.970 54.446 M372.174 64.935 C 372.175 67.133,372.242 67.981,372.323 66.820 C 372.404 65.659,372.403 63.860,372.321 62.824 C 372.239 61.787,372.173 62.737,372.174 64.935 M374.272 68.132 C 373.917 68.681,373.335 69.625,372.980 70.230 L 372.333 71.329 373.137 70.356 C 374.086 69.207,375.346 67.133,375.094 67.133 C 374.996 67.133,374.627 67.582,374.272 68.132 M351.038 207.093 L 348.252 209.990 351.149 207.204 C 352.742 205.671,354.046 204.367,354.046 204.306 C 354.046 204.013,353.626 204.402,351.038 207.093 M359.241 205.919 C 359.241 205.988,359.825 206.572,360.539 207.218 L 361.838 208.392 360.664 207.093 C 359.570 205.882,359.241 205.611,359.241 205.919 M345.654 211.988 C 344.684 212.977,343.979 213.786,344.089 213.786 C 344.199 213.786,345.083 212.977,346.054 211.988 C 347.025 210.999,347.729 210.190,347.619 210.190 C 347.509 210.190,346.625 210.999,345.654 211.988 M376.444 304.716 C 377.422 305.827,378.303 306.675,378.402 306.600 C 378.502 306.526,377.701 305.618,376.624 304.581 L 374.665 302.697 376.444 304.716 " stroke="none" fill="#979ca3" fill-rule="evenodd"></path><path id="path4" d="M88.240 18.152 C 85.734 20.856,80.522 25.974,80.275 25.974 C 80.105 25.974,79.647 26.513,79.257 27.173 C 78.868 27.832,78.330 28.372,78.063 28.372 C 77.795 28.372,77.455 28.686,77.307 29.071 C 77.159 29.456,75.275 31.389,73.120 33.367 C 70.965 35.345,69.186 37.193,69.167 37.475 C 69.147 37.757,68.859 38.091,68.527 38.219 C 67.604 38.573,63.141 43.322,63.458 43.612 C 63.611 43.753,65.534 44.077,67.732 44.332 C 69.930 44.587,74.695 45.143,78.322 45.568 C 88.337 46.742,86.411 47.518,95.209 38.761 L 102.837 31.169 101.868 30.084 C 99.668 27.621,89.423 17.582,89.109 17.582 C 88.922 17.582,88.531 17.839,88.240 18.152 M374.820 29.071 L 368.631 35.365 374.925 29.176 C 378.387 25.772,381.219 22.940,381.219 22.882 C 381.219 22.596,380.570 23.224,374.820 29.071 M371.207 24.675 L 369.830 26.174 371.329 24.797 C 372.723 23.515,373.011 23.177,372.706 23.177 C 372.639 23.177,371.965 23.851,371.207 24.675 M171.926 42.749 C 165.525 49.118,160.423 54.412,160.588 54.514 C 160.839 54.669,170.380 55.846,181.501 57.093 C 184.899 57.474,184.485 57.742,191.521 50.592 L 197.428 44.590 190.727 37.879 C 187.041 34.189,183.921 31.169,183.794 31.169 C 183.667 31.169,178.326 36.380,171.926 42.749 M361.617 34.266 L 360.240 35.764 361.738 34.387 C 363.133 33.105,363.420 32.767,363.115 32.767 C 363.049 32.767,362.374 33.442,361.617 34.266 M365.822 38.062 L 363.437 40.559 365.934 38.174 C 367.308 36.863,368.432 35.739,368.432 35.677 C 368.432 35.382,368.037 35.742,365.822 38.062 M270.164 67.685 L 269.200 68.931 270.343 67.844 C 270.972 67.247,271.406 66.686,271.307 66.598 C 271.209 66.511,270.695 67.000,270.164 67.685 M261.317 75.425 L 259.940 76.923 261.439 75.546 C 262.833 74.264,263.121 73.926,262.816 73.926 C 262.749 73.926,262.075 74.600,261.317 75.425 M258.317 78.022 L 257.143 79.321 258.442 78.147 C 259.156 77.502,259.740 76.917,259.740 76.848 C 259.740 76.540,259.411 76.811,258.317 78.022 M250.928 84.615 L 249.550 86.114 251.049 84.737 C 252.444 83.455,252.731 83.117,252.426 83.117 C 252.359 83.117,251.685 83.791,250.928 84.615 M246.932 88.212 L 245.554 89.710 247.053 88.333 C 248.448 87.051,248.735 86.713,248.430 86.713 C 248.363 86.713,247.689 87.388,246.932 88.212 M242.339 92.408 L 240.759 94.106 242.458 92.526 C 244.037 91.057,244.339 90.709,244.037 90.709 C 243.972 90.709,243.208 91.474,242.339 92.408 M237.150 97.203 L 234.765 99.700 237.263 97.315 C 238.636 96.003,239.760 94.880,239.760 94.818 C 239.760 94.522,239.366 94.883,237.150 97.203 M230.759 103.197 L 227.972 106.094 230.869 103.307 C 232.463 101.775,233.766 100.471,233.766 100.410 C 233.766 100.117,233.347 100.506,230.759 103.197 M221.373 112.188 L 215.984 117.682 221.479 112.293 C 226.583 107.287,227.154 106.693,226.868 106.693 C 226.810 106.693,224.337 109.166,221.373 112.188 M202.192 131.369 L 197.203 136.464 202.298 131.475 C 207.030 126.840,207.574 126.274,207.287 126.274 C 207.228 126.274,204.936 128.566,202.192 131.369 M331.647 130.569 L 330.270 132.068 331.768 130.691 C 333.163 129.409,333.450 129.071,333.145 129.071 C 333.079 129.071,332.404 129.745,331.647 130.569 M193.594 140.360 L 191.209 142.857 193.706 140.472 C 196.026 138.257,196.387 137.862,196.091 137.862 C 196.030 137.862,194.906 138.986,193.594 140.360 M324.251 139.161 L 323.077 140.460 324.376 139.286 C 325.090 138.640,325.674 138.056,325.674 137.987 C 325.674 137.678,325.345 137.950,324.251 139.161 M321.257 142.557 L 319.880 144.056 321.379 142.679 C 322.773 141.397,323.061 141.059,322.756 141.059 C 322.689 141.059,322.015 141.733,321.257 142.557 M187.597 146.753 L 185.614 148.851 187.712 146.868 C 188.866 145.778,189.810 144.833,189.810 144.770 C 189.810 144.472,189.440 144.804,187.597 146.753 M318.060 146.154 L 316.683 147.652 318.182 146.275 C 319.577 144.993,319.864 144.655,319.559 144.655 C 319.492 144.655,318.818 145.330,318.060 146.154 M314.864 149.750 L 313.487 151.249 314.985 149.872 C 316.380 148.590,316.667 148.252,316.362 148.252 C 316.295 148.252,315.621 148.926,314.864 149.750 M183.198 151.548 L 181.618 153.247 183.317 151.667 C 184.896 150.198,185.199 149.850,184.896 149.850 C 184.831 149.850,184.067 150.614,183.198 151.548 M310.889 154.046 C 309.918 155.035,309.214 155.844,309.324 155.844 C 309.434 155.844,310.318 155.035,311.289 154.046 C 312.259 153.057,312.964 152.248,312.854 152.248 C 312.744 152.248,311.860 153.057,310.889 154.046 M306.494 158.841 C 305.523 159.830,304.819 160.639,304.929 160.639 C 305.038 160.639,305.922 159.830,306.893 158.841 C 307.864 157.852,308.568 157.043,308.458 157.043 C 308.348 157.043,307.464 157.852,306.494 158.841 M300.899 164.835 C 299.262 166.484,298.012 167.832,298.122 167.832 C 298.232 167.832,299.661 166.484,301.299 164.835 C 302.936 163.187,304.186 161.838,304.076 161.838 C 303.966 161.838,302.536 163.187,300.899 164.835 M292.101 174.126 L 287.912 178.422 292.208 174.233 C 296.198 170.342,296.685 169.830,296.396 169.830 C 296.338 169.830,294.405 171.763,292.101 174.126 M279.905 186.713 L 277.922 188.811 280.020 186.828 C 281.969 184.986,282.301 184.615,282.003 184.615 C 281.940 184.615,280.996 185.559,279.905 186.713 M266.926 199.301 L 262.737 203.596 267.033 199.408 C 269.396 197.104,271.329 195.171,271.329 195.112 C 271.329 194.823,270.816 195.311,266.926 199.301 M349.289 208.946 L 342.734 215.286 343.005 218.632 C 343.385 223.313,345.191 238.396,345.479 239.286 C 345.643 239.795,369.228 216.731,369.230 216.059 C 369.231 215.798,356.156 202.587,355.912 202.602 C 355.875 202.604,352.894 205.459,349.289 208.946 M258.530 207.293 L 255.944 209.990 258.641 207.404 C 260.125 205.982,261.339 204.768,261.339 204.707 C 261.339 204.413,260.932 204.787,258.530 207.293 M252.333 213.087 L 250.350 215.185 252.448 213.202 C 253.601 212.111,254.545 211.167,254.545 211.104 C 254.545 210.806,254.175 211.138,252.333 213.087 M247.752 217.183 C 246.782 218.172,246.077 218.981,246.187 218.981 C 246.297 218.981,247.181 218.172,248.152 217.183 C 249.122 216.194,249.827 215.385,249.717 215.385 C 249.607 215.385,248.723 216.194,247.752 217.183 M162.133 233.134 C 146.792 239.442,105.351 276.576,82.158 304.796 C 80.668 306.609,79.237 308.227,78.978 308.392 C 78.494 308.700,77.275 310.143,75.524 312.480 C 74.975 313.213,74.346 314.009,74.126 314.249 C 73.906 314.489,72.929 315.764,71.955 317.083 C 70.980 318.402,70.071 319.570,69.933 319.680 C 69.557 319.980,66.098 324.984,65.789 325.674 C 65.642 326.004,64.997 327.083,64.356 328.072 C 56.839 339.668,58.101 344.295,67.532 339.726 C 68.741 339.140,69.910 338.446,70.130 338.183 C 70.350 337.920,71.429 337.235,72.527 336.661 C 74.821 335.463,76.870 334.076,81.903 330.315 C 84.629 328.278,89.799 324.056,91.260 322.675 C 91.726 322.234,94.266 319.989,96.903 317.685 C 103.559 311.873,110.900 305.046,118.744 297.375 C 123.897 292.335,125.452 291.019,125.590 291.581 C 125.688 291.981,125.731 291.797,125.685 291.173 C 125.617 290.233,126.297 289.300,129.634 285.760 C 153.221 260.736,170.804 236.347,167.835 232.771 C 167.109 231.896,164.783 232.044,162.133 233.134 M361.279 305.509 L 353.528 313.268 354.621 322.768 C 355.223 327.993,355.814 333.307,355.936 334.577 C 356.058 335.847,356.307 336.979,356.490 337.092 C 356.971 337.389,382.863 311.287,382.565 310.805 C 382.428 310.583,381.511 309.657,380.528 308.747 C 379.545 307.837,377.904 306.212,376.883 305.135 C 372.961 301.002,370.848 298.932,369.956 298.352 C 369.052 297.764,368.855 297.927,361.279 305.509 M126.766 302.498 C 126.766 303.267,126.848 303.581,126.949 303.197 C 127.049 302.812,127.049 302.183,126.949 301.798 C 126.848 301.414,126.766 301.728,126.766 302.498 " stroke="none" fill="#84b4cc" fill-rule="evenodd"></path></g></svg>